<svg width="24" height="24" viewBox="0 0 24 24" fill="none" xmlns="http://www.w3.org/2000/svg">
<path d="M3.25 1C2.55965 1 2 1.55965 2 2.25C2 2.94035 2.55965 3.5 3.25 3.5H4.77402L5.15597 5.0278C5.15999 5.04546 5.16437 5.06299 5.16912 5.08036L6.86566 11.8665L5.74994 12.9822C4.17502 14.5571 5.29044 17.25 7.5177 17.25H18.25C18.9402 17.25 19.5 16.6904 19.5 16C19.5 15.3096 18.9402 14.75 18.25 14.75H7.51771L8.7677 13.5H17C17.4735 13.5 17.9062 13.2325 18.118 12.809L21.868 5.30901C22.0617 4.92154 22.0411 4.46136 21.8134 4.09284C21.5855 3.72431 21.1832 3.5 20.75 3.5H7.35097L6.96267 1.94682C6.82356 1.39037 6.32359 1 5.75 1H3.25Z" fill="#475569"/>
<path d="M19.5 20.375C19.5 21.4105 18.6605 22.25 17.625 22.25C16.5895 22.25 15.75 21.4105 15.75 20.375C15.75 19.3395 16.5895 18.5 17.625 18.5C18.6605 18.5 19.5 19.3395 19.5 20.375Z" fill="#475569"/>
<path d="M7.625 22.25C8.66054 22.25 9.5 21.4105 9.5 20.375C9.5 19.3395 8.66054 18.5 7.625 18.5C6.58946 18.5 5.75 19.3395 5.75 20.375C5.75 21.4105 6.58946 22.25 7.625 22.25Z" fill="#475569"/>
</svg>
