<svg width="20" height="20" viewBox="0 0 20 20" fill="none" xmlns="http://www.w3.org/2000/svg">
<path fill-rule="evenodd" clip-rule="evenodd" d="M4.06555 3.62728C4.02371 3.42904 3.82981 3.30091 3.63057 3.34076C3.43127 3.38062 3.30157 3.57351 3.33928 3.77274C3.36862 3.90299 3.41046 4.03401 3.46179 4.16825C3.54998 4.39891 3.6964 4.71712 3.93274 5.08479C4.29077 5.6417 4.85135 6.30604 5.71852 6.94933L5.94198 7.11512L5.87448 7.38508C5.7759 7.77925 5.69481 8.27462 5.69398 8.81108L5.69394 8.81966C5.69394 9.11366 5.7316 9.36454 5.79823 9.585C5.80965 9.58404 5.82119 9.58358 5.83281 9.58358H14.1661C14.1778 9.58358 14.1894 9.58404 14.2008 9.585C14.2674 9.36454 14.3051 9.11366 14.3051 8.81966C14.3051 8.27991 14.2237 7.78137 14.1246 7.38504L14.0571 7.11508L14.2805 6.94933C15.1476 6.306 15.7082 5.6417 16.0662 5.08479C16.3376 4.66262 16.5653 4.2185 16.6593 3.77472C16.6983 3.57479 16.5684 3.38075 16.3684 3.34076C16.1692 3.30091 15.9753 3.42903 15.9334 3.62728L15.9323 3.63252L15.9308 3.63904L15.9306 3.63988C15.9138 3.70988 15.8044 4.12231 15.4431 4.6842C15.1012 5.21608 14.529 5.88958 13.5828 6.53704L13.4254 6.64479L13.241 6.596C12.4296 6.38141 11.3563 6.155 10.4069 6.10045L10.4057 6.10037C10.272 6.09233 10.1366 6.0882 9.99952 6.0882C9.86231 6.0882 9.7266 6.09233 9.59277 6.10041L9.59156 6.1005C8.64227 6.15508 7.56923 6.38145 6.75802 6.596L6.5736 6.64479L6.41619 6.53704C5.47002 5.88958 4.89777 5.21608 4.55585 4.6842C4.34948 4.3632 4.22535 4.09115 4.15367 3.9037C4.12594 3.83115 4.09193 3.73864 4.06791 3.63778L4.06667 3.63255L4.06555 3.62728ZM4.87956 3.44873C4.74065 2.8077 4.1126 2.39452 3.46714 2.52361C2.81526 2.65398 2.3925 3.28812 2.52287 3.94L2.52377 3.94447L2.52476 3.94891C2.5651 4.12997 2.62091 4.30237 2.68341 4.46587C2.79018 4.74512 2.9617 5.11533 3.23176 5.53541C3.60965 6.12325 4.1734 6.79754 5.0044 7.45225C4.92223 7.84733 4.86144 8.31104 4.86065 8.8095L4.8606 8.81966C4.8606 9.60929 5.08019 10.2041 5.42965 10.6981C5.76169 11.1675 6.20544 11.5347 6.62056 11.8782L6.64085 11.895C7.18602 12.3462 7.71023 12.7838 8.1106 13.4344C8.50531 14.0758 8.79581 14.9542 8.79581 16.2965C8.79581 16.9613 9.33473 17.5002 9.99952 17.5002C10.6643 17.5002 11.2032 16.9613 11.2032 16.2965C11.2032 14.9542 11.4937 14.0758 11.8884 13.4344C12.2888 12.7838 12.813 12.3462 13.3581 11.895L13.3785 11.8782C13.7936 11.5347 14.2374 11.1675 14.5694 10.6981C14.9189 10.2041 15.1384 9.60929 15.1384 8.81966C15.1384 8.31733 15.0774 7.84995 14.9946 7.4522C15.8256 6.79754 16.3894 6.1232 16.7672 5.53541C17.061 5.07845 17.351 4.5337 17.4752 3.94423L17.4761 3.94C17.6065 3.28813 17.1837 2.65398 16.5319 2.52361C15.8867 2.39458 15.259 2.80728 15.1196 3.44775C15.1116 3.47879 15.0269 3.79065 14.7421 4.23358C14.4752 4.64887 14.0227 5.19512 13.2656 5.7415C12.4529 5.53495 11.4091 5.32337 10.4554 5.26854C10.3051 5.2595 10.1531 5.25487 9.99952 5.25487C9.84573 5.25487 9.69348 5.2595 9.54306 5.26858C8.58948 5.32345 7.5459 5.53504 6.7334 5.74154C5.97631 5.19512 5.52377 4.64887 5.25681 4.23358C5.08419 3.96502 4.98515 3.74494 4.93206 3.60608C4.90723 3.54119 4.89023 3.49232 4.87956 3.44873Z" fill="#006274"/>
</svg>
