<svg width="20" height="20" viewBox="0 0 20 20" fill="none" xmlns="http://www.w3.org/2000/svg">
<path d="M15.788 14.8734L15.4873 11.3657C15.2885 10.1069 13.7896 9.81179 13.7896 9.81179L12.0972 9.5332" stroke="#006274" stroke-miterlimit="10" stroke-linecap="round" stroke-linejoin="round"/>
<path d="M10.0574 2.19922C7.61317 2.19922 7.47764 3.67734 7.64847 5.47405C7.82 7.27405 8.95105 8.7477 10.0574 8.7477C11.1645 8.7477 12.2951 7.27428 12.4659 5.47405C12.6367 3.67734 12.5016 2.19922 10.0574 2.19922Z" stroke="#006274" stroke-miterlimit="10" stroke-linejoin="round"/>
<path d="M10.7805 3.65039C10.7805 3.65039 10.5386 4.79627 8.83887 4.8751" stroke="#006274" stroke-miterlimit="10" stroke-linecap="round" stroke-linejoin="round"/>
<path d="M10.5674 4.14844C10.5674 4.14844 11.4071 4.72373 12.4406 4.99361" stroke="#006274" stroke-miterlimit="10" stroke-linecap="round" stroke-linejoin="round"/>
<path d="M13.2664 9.73926L6.70947 17.7724" stroke="#006274" stroke-miterlimit="10" stroke-linecap="round" stroke-linejoin="round"/>
<path d="M14.3285 10.0264L8.98096 17.7727" stroke="#006274" stroke-miterlimit="10" stroke-linecap="round" stroke-linejoin="round"/>
<path d="M12.3325 15.5176L10.7925 17.7731" stroke="#006274" stroke-miterlimit="10" stroke-linecap="round" stroke-linejoin="round"/>
<path d="M8.63371 15.3301H6.81982" stroke="#006274" stroke-miterlimit="10" stroke-linecap="round" stroke-linejoin="round"/>
<path d="M10.9931 10.3904C10.7284 10.5007 10.4296 10.5626 10.1141 10.5626C9.26793 10.5626 8.54464 10.12 8.26534 9.49414L6.35405 9.81061C6.35405 9.81061 4.85522 10.1057 4.6564 11.3645C4.6564 11.3645 4.26698 14.5452 4.21569 15.9918C4.1644 17.4388 4.83051 17.7998 5.18299 17.7998C5.45734 17.7998 11.8788 17.7998 11.8788 17.7998C11.8788 17.7998 12.8199 17.7217 12.8199 16.8586V16.2704C12.8199 15.753 12.3964 15.3292 11.8788 15.3292H10.7449" stroke="#006274" stroke-miterlimit="10" stroke-linecap="round" stroke-linejoin="round"/>
</svg>
