<svg width="40" height="40" viewBox="0 0 40 40" fill="none" xmlns="http://www.w3.org/2000/svg">
<path d="M20.1592 10.0273V33.8179" stroke="#394553" stroke-miterlimit="10" stroke-linecap="round"/>
<path d="M20.1592 9.97278C21.1625 9.97278 21.9757 9.15952 21.9757 8.15631C21.9757 7.1531 21.1625 6.33984 20.1592 6.33984C19.156 6.33984 18.3428 7.1531 18.3428 8.15631C18.3428 9.15952 19.156 9.97278 20.1592 9.97278Z" stroke="#394553" stroke-miterlimit="10" stroke-linecap="round" stroke-linejoin="round"/>
<path d="M19.9967 12.3675C18.3322 12.3675 16.1972 11.984 13.5784 6.48566C13.0231 5.32001 11.0819 3.26683 7.86306 6.76284C7.86306 6.76284 5.75483 8.81554 2 9.40754C2 9.40754 5.73788 14.5765 13.0174 16.8019" stroke="#394553" stroke-miterlimit="10" stroke-linecap="round" stroke-linejoin="round"/>
<path d="M4.16309 11.6614C4.16309 11.6614 8.45438 10.1814 10.3038 8.33203" stroke="#394553" stroke-miterlimit="10" stroke-linecap="round" stroke-linejoin="round"/>
<path d="M6.30957 13.4224C6.30957 13.4224 9.76933 12.3514 11.2865 10.9961" stroke="#394553" stroke-miterlimit="10" stroke-linecap="round" stroke-linejoin="round"/>
<path d="M8.99805 15.0308C8.99805 15.0308 11.3971 14.1146 12.5595 13.3047" stroke="#394553" stroke-miterlimit="10" stroke-linecap="round" stroke-linejoin="round"/>
<path d="M17.756 28.9771C17.2623 29.6081 17.5282 30.4665 20.0237 31.5267" stroke="#394553" stroke-miterlimit="10" stroke-linecap="round"/>
<path d="M22.1227 30.5405C21.7321 30.8417 21.1091 31.1819 20.2959 31.5274" stroke="#394553" stroke-miterlimit="10" stroke-linecap="round"/>
<path d="M16.0094 16.9438C13.9506 18.4733 15.6316 20.7636 19.3911 22.2808C19.3911 22.2808 25.304 24.5288 22.7831 26.5848" stroke="#394553" stroke-miterlimit="10" stroke-linecap="round"/>
<path d="M15.7319 16.9633C15.9573 17.2839 16.6266 17.2016 17.2268 16.7796C17.8269 16.3576 18.1307 15.7556 17.9053 15.435C17.6798 15.1144 17.0105 15.1966 16.4104 15.6186C15.8102 16.0406 15.5064 16.6427 15.7319 16.9633Z" fill="#394553" stroke="#394553" stroke-miterlimit="10"/>
<path d="M20.3223 12.3675C21.9881 12.3675 24.1223 11.984 26.7411 6.48566C27.2964 5.32001 29.2385 3.26683 32.4569 6.76284C32.4569 6.76284 34.5646 8.81554 38.3199 9.40754C38.3199 9.40754 34.582 14.5765 27.3025 16.8019" stroke="#394553" stroke-miterlimit="10" stroke-linecap="round" stroke-linejoin="round"/>
<path d="M36.1573 11.6614C36.1573 11.6614 31.866 10.1814 30.0166 8.33203" stroke="#394553" stroke-miterlimit="10" stroke-linecap="round" stroke-linejoin="round"/>
<path d="M34.0101 13.4224C34.0101 13.4224 30.5494 12.3514 29.0322 10.9961" stroke="#394553" stroke-miterlimit="10" stroke-linecap="round" stroke-linejoin="round"/>
<path d="M31.3202 15.0308C31.3202 15.0308 28.9212 14.1146 27.7598 13.3047" stroke="#394553" stroke-miterlimit="10" stroke-linecap="round" stroke-linejoin="round"/>
<path d="M18.1356 23.7715C16.6194 24.8981 15.8104 26.4614 20.0189 27.7282C20.0189 27.7282 24.3869 28.7409 22.1225 30.5409" stroke="#394553" stroke-miterlimit="10" stroke-linecap="round"/>
<path d="M24.3106 16.9434C25.9732 18.1782 25.1977 19.9095 22.8574 21.3288" stroke="#394553" stroke-miterlimit="10" stroke-linecap="round"/>
<path d="M22.4172 15.4322C22.1916 15.7527 22.4952 16.355 23.0954 16.7775C23.6956 17.1999 24.365 17.2826 24.5906 16.9621C24.8161 16.6416 24.5125 16.0394 23.9123 15.6169C23.3122 15.1944 22.6428 15.1118 22.4172 15.4322Z" fill="#394553" stroke="#394553" stroke-miterlimit="10"/>
</svg>
