<svg width="40" height="40" viewBox="0 0 40 40" fill="none" xmlns="http://www.w3.org/2000/svg">
<path d="M29.9626 14.5039L22.7744 24.9326" stroke="#475569" stroke-miterlimit="10" stroke-linecap="round"/>
<path d="M23.1529 18.1207C24.1278 18.1207 24.918 17.3304 24.918 16.3555C24.918 15.3806 24.1278 14.5903 23.1529 14.5903C22.178 14.5903 21.3877 15.3806 21.3877 16.3555C21.3877 17.3304 22.178 18.1207 23.1529 18.1207Z" stroke="#475569" stroke-miterlimit="10" stroke-linecap="round"/>
<path d="M31.3494 23.0806C31.3494 24.0556 30.5579 24.8472 29.5791 24.8472C28.604 24.8472 27.8125 24.0556 27.8125 23.0806C27.8125 22.1055 28.604 21.3149 29.5791 21.3149C30.5584 21.3149 31.3494 22.1051 31.3494 23.0806Z" stroke="#475569" stroke-miterlimit="10" stroke-linecap="round"/>
<path d="M17.5784 10.24V16.24H11.696L17.2254 10H33.8475C34.624 10 35.2593 10.6353 35.2593 11.4118V28.0254C35.2593 28.8009 34.624 29.4372 33.8475 29.4372H5.41176C4.63529 29.4372 4 28.8009 4 28.0254V11.4118C4 10.6353 4.63529 10 5.41176 10H11.5784V12.7106" stroke="#475569" stroke-miterlimit="10" stroke-linejoin="round"/>
<path d="M11.6611 18.4707V20.9658" stroke="#475569" stroke-miterlimit="10" stroke-linejoin="round"/>
<path d="M11.6611 22.6636V25.1591" stroke="#475569" stroke-miterlimit="10" stroke-linejoin="round"/>
<path d="M11.6611 26.8564V29.3581" stroke="#475569" stroke-miterlimit="10" stroke-linejoin="round"/>
</svg>
