<svg width="20" height="20" viewBox="0 0 20 20" fill="none" xmlns="http://www.w3.org/2000/svg">
<path d="M17.2736 11.5169L14.4645 9.92352L17.2383 8.26941L15.0089 4.53106L12.3127 6.13906V3H7.96V6.23388L5.14753 4.63812L3 8.42376L5.80918 10.0174L3.03482 11.6718L5.26423 15.4099L7.96 13.8021V16.9412H12.3127V13.7068L15.1261 15.3028L17.2736 11.5169Z" stroke="#006274" stroke-miterlimit="10" stroke-linecap="round" stroke-linejoin="round"/>
<path d="M10.1367 12.625V14.9403" stroke="#006274" stroke-miterlimit="10" stroke-linecap="round" stroke-linejoin="round"/>
<path d="M10.1367 8.37109V11.4066" stroke="#006274" stroke-miterlimit="10" stroke-linecap="round" stroke-linejoin="round"/>
<path d="M10.1367 5.4834V7.19022" stroke="#006274" stroke-miterlimit="10" stroke-linecap="round" stroke-linejoin="round"/>
<path d="M11.0878 10.0283C11.7256 10.286 12.143 10.6333 11.3181 11.0038C11.3181 11.0038 10.1414 11.3921 9.49435 11.7253C9.49435 11.7253 8.19058 12.4022 9.61199 13.302C9.61199 13.302 10.1906 13.7354 11.0143 14.3323" stroke="#006274" stroke-miterlimit="10" stroke-linecap="round" stroke-linejoin="round"/>
<path d="M11.6909 7.35655C11.6909 7.35655 9.96505 6.77538 9.10246 7.75585C9.10246 7.75585 8.10976 8.84008 9.16317 9.43373" stroke="#006274" stroke-miterlimit="10" stroke-linecap="round" stroke-linejoin="round"/>
</svg>
