<svg width="20" height="20" viewBox="0 0 20 20" fill="none" xmlns="http://www.w3.org/2000/svg">
<path fill-rule="evenodd" clip-rule="evenodd" d="M9.99984 10.4167C11.432 10.4167 12.4998 9.34079 12.4998 8.125C12.4998 6.90921 11.432 5.83333 9.99984 5.83333C8.56763 5.83333 7.49984 6.90921 7.49984 8.125C7.49984 9.34079 8.56763 10.4167 9.99984 10.4167ZM9.99984 11.25C11.8408 11.25 13.3332 9.85088 13.3332 8.125C13.3332 6.39913 11.8408 5 9.99984 5C8.15888 5 6.6665 6.39913 6.6665 8.125C6.6665 9.85088 8.15888 11.25 9.99984 11.25Z" fill="#006274"/>
<path fill-rule="evenodd" clip-rule="evenodd" d="M9.99992 2.47559L11.9255 3.13582C12.7676 3.42452 13.3332 4.21635 13.3332 5.10656L13.3332 7.91606H12.4998L12.4999 5.10656C12.4999 4.57243 12.1605 4.09733 11.6553 3.9241L9.99992 3.35654L8.34446 3.92411C7.83921 4.09733 7.49988 4.57243 7.49988 5.10656L7.49984 7.91606H6.6665L6.66655 5.10652C6.66655 4.21635 7.23213 3.42453 8.07421 3.13582L9.99992 2.47559Z" fill="#006274"/>
<path fill-rule="evenodd" clip-rule="evenodd" d="M8.33333 15.4169C9.25379 15.4169 10 14.6708 10 13.7503C10 14.6708 10.7462 15.4169 11.6667 15.4169C12.5871 15.4169 13.3333 14.6708 13.3333 13.7503C13.3333 13.1609 13.0275 12.6431 12.5658 12.3467C14.9392 12.7906 17.5 13.8013 17.5 15.4169V17.5003H2.5V15.4169C2.5 13.8013 5.06075 12.7906 7.43421 12.3467C6.97254 12.6431 6.66667 13.1609 6.66667 13.7503C6.66667 14.6708 7.41287 15.4169 8.33333 15.4169ZM5.83333 17.5003V15.0003H5V17.5003H5.83333ZM15 15.0003V17.5003H14.1667V15.0003H15Z" fill="#006274"/>
<path fill-rule="evenodd" clip-rule="evenodd" d="M7.1084 12.4111C7.29552 13.637 8.51894 14.5836 10.0003 14.5836C11.4816 14.5836 12.705 13.637 12.8921 12.4111C12.6204 12.3546 12.3494 12.3055 12.0832 12.2637C12.0835 12.2731 12.0836 12.2825 12.0836 12.292C12.0836 13.0962 11.1536 13.7483 10.0054 13.7503H10.0003H9.99511C8.8469 13.7483 7.91694 13.0962 7.91694 12.292C7.91694 12.2825 7.91707 12.2731 7.91732 12.2637C7.65119 12.3055 7.38019 12.3546 7.1084 12.4111Z" fill="#006274"/>
</svg>
