<svg width="20" height="20" viewBox="0 0 20 20" fill="none" xmlns="http://www.w3.org/2000/svg">
<path d="M12.427 13.376C12.9164 13.376 13.3166 13.7828 13.3166 14.28V14.4894C13.3166 14.9856 12.9164 15.3927 12.427 15.3927H10.9453C10.4564 15.3927 10.0562 14.9859 10.0562 14.4894V14.28C10.0562 13.7828 10.4564 13.376 10.9453 13.376H12.427Z" stroke="#006274" stroke-miterlimit="10"/>
<path d="M12.9776 11.3594C13.4665 11.3594 13.8663 11.7662 13.8663 12.2629V12.4723C13.8663 12.9686 13.4665 13.3754 12.9776 13.3754H10.9453C10.4564 13.3754 10.0562 12.9686 10.0562 12.4723V12.2629C10.0562 11.7662 10.4564 11.3594 10.9453 11.3594H12.9776Z" stroke="#006274" stroke-miterlimit="10"/>
<path d="M10.7656 7.32812H16.835C17.3245 7.32812 17.7242 7.73495 17.7242 8.23189V8.4413C17.7242 8.93801 17.3245 9.34483 16.835 9.34483H10.8212" stroke="#006274" stroke-miterlimit="10"/>
<path d="M10.9458 9.34473H13.4858C13.9747 9.34473 14.375 9.75084 14.375 10.248V10.4572C14.375 10.9541 13.9747 11.3607 13.4858 11.3607H10.9458" stroke="#006274" stroke-miterlimit="10"/>
<path d="M6.94531 11.0961C6.94531 11.0961 8.78531 10.4613 8.78531 8.53516" stroke="#006274" stroke-miterlimit="10" stroke-linecap="round"/>
<path d="M2.27686 13.8613H3.71944C3.71944 13.8613 4.07615 14.5089 5.00109 14.8609C6.07733 15.2698 8.23638 15.3917 10.7714 15.3917" stroke="#006274" stroke-miterlimit="10" stroke-linecap="round" stroke-linejoin="round"/>
<path d="M8.78838 7.75531V9.70707C8.78838 11.1882 10.6738 11.1887 10.6738 11.1887C10.6738 11.1887 10.6738 7.39319 10.6738 6.9906C10.6738 6.19507 10.2079 5.93249 10.2079 5.93249C8.51474 5.4666 7.15662 6.03978 7.15662 6.03978C6.60603 6.20872 4.53474 7.85625 4.53474 7.85625C4.11097 8.21648 3.68768 8.28001 3.68768 8.28001H2.27686" stroke="#006274" stroke-miterlimit="10" stroke-linecap="round" stroke-linejoin="round"/>
<path d="M16.4356 11.1943C16.4356 11.7202 15.4033 12.6654 15.4033 13.2355C15.4033 13.8061 15.8652 14.2682 16.4356 14.2682C17.0059 14.2682 17.4683 13.8061 17.4683 13.2355C17.468 12.6654 16.4356 11.7205 16.4356 11.1943Z" stroke="#006274" stroke-linecap="round" stroke-linejoin="round"/>
<path d="M16.3663 9.35104L15.8369 8.2334" stroke="#006274" stroke-linejoin="round"/>
<path d="M15.8481 5.55055V4.60938" stroke="#006274" stroke-linecap="round" stroke-linejoin="round"/>
<path d="M16.873 6.02014L17.5385 5.35449" stroke="#006274" stroke-linecap="round" stroke-linejoin="round"/>
<path d="M14.8226 6.02112L14.1567 5.35547" stroke="#006274" stroke-linecap="round" stroke-linejoin="round"/>
</svg>
