<svg width="20" height="20" viewBox="0 0 20 20" fill="none" xmlns="http://www.w3.org/2000/svg">
<path fill-rule="evenodd" clip-rule="evenodd" d="M7.08333 11.6718C7.29283 11.6241 7.91667 12.4999 7.91667 12.4999L9.81171 12.4999C10.0578 12.5 10.236 12.5 10.7021 12.4999H12.0833C12.0833 12.4999 12.7072 11.6241 12.9167 11.6718C15.1684 12.1846 17.5 13.6643 17.5 15.2373V17.4999H2.5V15.2373C2.5 13.6643 4.83158 12.1846 7.08333 11.6718ZM13.3333 14.1665V13.3332H14.1667V14.1665H15V14.9999H14.1667V15.8332H13.3333V14.9999H12.5V14.1665H13.3333Z" fill="#006274"/>
<path fill-rule="evenodd" clip-rule="evenodd" d="M10.0002 10C11.8411 10 13.3335 8.50762 13.3335 6.66667C13.3335 4.82571 11.8411 3.33333 10.0002 3.33333C8.1592 3.33333 6.66683 4.82571 6.66683 6.66667C6.66683 8.50762 8.1592 10 10.0002 10ZM10.0002 10.8333C12.3013 10.8333 14.1668 8.96783 14.1668 6.66667C14.1668 4.3655 12.3013 2.5 10.0002 2.5C7.699 2.5 5.8335 4.3655 5.8335 6.66667C5.8335 8.96783 7.699 10.8333 10.0002 10.8333Z" fill="#006274"/>
</svg>
