<svg width="20" height="20" viewBox="0 0 20 20" fill="none" xmlns="http://www.w3.org/2000/svg">
<path d="M17.399 4.36133H2.60205V15.6376H17.399V4.36133Z" stroke="#006274" stroke-miterlimit="10" stroke-linejoin="round"/>
<path d="M3.8833 14.1338H6.21671" stroke="#006274" stroke-miterlimit="10" stroke-linejoin="round"/>
<path d="M6.48456 7.98047C6.48456 7.98047 6.1415 9.54917 8.24926 9.15694C8.38456 9.13176 8.62879 9.06094 8.90362 8.98917" stroke="#006274" stroke-miterlimit="10" stroke-linecap="round" stroke-linejoin="round"/>
<path d="M7.30804 6.00977C7.30804 6.00977 6.77275 7.41094 8.80075 7.25494C8.8391 7.25212 8.87604 7.24788 8.91228 7.24294" stroke="#006274" stroke-miterlimit="10" stroke-linecap="round" stroke-linejoin="round"/>
<path d="M6.48456 10.0977C6.48456 10.0977 6.1415 11.6664 8.24926 11.2741C8.3822 11.2494 8.62055 11.1805 8.8895 11.1101" stroke="#006274" stroke-miterlimit="10" stroke-linecap="round" stroke-linejoin="round"/>
<path d="M7.6414 12.2842C7.6414 12.2842 6.84729 13.3136 8.6414 13.3136H8.91434" stroke="#006274" stroke-miterlimit="10" stroke-linecap="round" stroke-linejoin="round"/>
<path d="M13.5164 7.98047C13.5164 7.98047 13.8597 9.54917 11.7517 9.15694C11.4432 9.09953 10.567 8.804 10.0571 8.804" stroke="#006274" stroke-miterlimit="10" stroke-linecap="round" stroke-linejoin="round"/>
<path d="M12.693 6.00977C12.693 6.00977 13.2283 7.41094 11.2003 7.25494C10.8179 7.22553 10.5629 7.07847 10.0532 7.07847" stroke="#006274" stroke-miterlimit="10" stroke-linecap="round" stroke-linejoin="round"/>
<path d="M13.5164 10.0977C13.5164 10.0977 13.8597 11.6664 11.7517 11.2741C11.4432 11.2167 10.567 10.9212 10.0571 10.9212" stroke="#006274" stroke-miterlimit="10" stroke-linecap="round" stroke-linejoin="round"/>
<path d="M12.3599 12.2842C12.3599 12.2842 13.154 13.3136 11.3599 13.3136H10.0361" stroke="#006274" stroke-miterlimit="10" stroke-linecap="round" stroke-linejoin="round"/>
<path d="M10 6.45508V13.9951" stroke="#006274" stroke-miterlimit="10" stroke-linecap="round" stroke-linejoin="round"/>
</svg>
