<svg width="20" height="20" viewBox="0 0 20 20" fill="none" xmlns="http://www.w3.org/2000/svg">
<path d="M14.8708 3.68294C14.0188 2.83094 12.7223 2.73353 11.9889 3.46694L10.2477 5.20788C9.51548 5.94059 9.61289 7.23706 10.4647 8.08906" stroke="#006274" stroke-miterlimit="10"/>
<path d="M11.2661 8.75053L15.8327 10.2557C15.8327 10.2557 16.5584 10.5268 16.9329 10.1519C17.3085 9.77688 17.0367 9.05171 17.0367 9.05171L15.5318 4.48535" stroke="#006274" stroke-miterlimit="10" stroke-linejoin="round"/>
<path d="M16.0819 3.8125L9.40186 10.4916" stroke="#006274" stroke-miterlimit="10" stroke-linecap="round" stroke-linejoin="round"/>
<path d="M9.00091 11.9464C9.47809 11.4414 9.66421 10.824 9.36679 10.5273C9.06938 10.2299 8.45197 10.4155 7.9475 10.8927L3.33526 15.1671C2.83032 15.644 2.68961 16.3064 3.13856 16.7553C3.58773 17.2042 4.24985 17.0638 4.72703 16.5586L9.00091 11.9464Z" stroke="#006274" stroke-miterlimit="10" stroke-linecap="round" stroke-linejoin="round"/>
</svg>
