<svg width="20" height="20" viewBox="0 0 20 20" fill="none" xmlns="http://www.w3.org/2000/svg">
<path d="M12.1597 6.34277H14.2649V7.95454H9.26416V6.34277H10.8291" stroke="#006274" stroke-miterlimit="10" stroke-linecap="round" stroke-linejoin="round"/>
<path d="M11.0985 5.06097L4.90576 5.06121V3.94238H11.0985" stroke="#006274" stroke-miterlimit="10"/>
<path d="M10.2891 3.90477V3.05512C10.2891 2.79018 10.506 2.57324 10.7712 2.57324H12.7587C13.0239 2.57324 13.2408 2.79018 13.2408 3.05512V6.3003" stroke="#006274" stroke-miterlimit="10" stroke-linejoin="round"/>
<path d="M10.2891 5.0918V6.30333" stroke="#006274" stroke-miterlimit="10" stroke-linejoin="round"/>
<path d="M8.50879 11.4805H12.9328V15.6753H8.50879" stroke="#006274" stroke-miterlimit="10"/>
<path d="M9.52441 12.9082H11.839" stroke="#006274" stroke-miterlimit="10"/>
<path d="M9.52441 14.248H11.839" stroke="#006274" stroke-miterlimit="10"/>
<path d="M14.2621 9.14941L15.0944 10.3598V16.9452C15.0944 17.2103 14.8774 17.4273 14.6122 17.4273H8.91694C8.652 17.4273 8.43506 17.2103 8.43506 16.9452V10.3598L9.26706 9.14941" stroke="#006274" stroke-miterlimit="10" stroke-linecap="round" stroke-linejoin="round"/>
</svg>
