<svg width="20" height="20" viewBox="0 0 20 20" fill="none" xmlns="http://www.w3.org/2000/svg">
<path d="M9.00572 3.58545H10.4634C11.1735 3.58545 11.7525 4.16592 11.7525 4.87533V7.90098C11.7525 8.77368 11.4396 9.44239 10.6998 9.9358L7.35254 12.2438" stroke="#394553" stroke-miterlimit="10"/>
<path d="M8.9917 2.81836V4.36189" stroke="#006274" stroke-miterlimit="10" stroke-linecap="round" stroke-linejoin="round"/>
<path d="M5.70067 3.58545H4.24279C3.53291 3.58545 2.95361 4.16592 2.95361 4.87533V7.90098C2.95361 8.77368 3.26655 9.44239 4.00632 9.9358L7.35361 12.2438" stroke="#006274" stroke-miterlimit="10"/>
<path d="M5.71436 2.81836V4.36189" stroke="#006274" stroke-miterlimit="10" stroke-linecap="round" stroke-linejoin="round"/>
<path d="M7.3667 12.144V15.0158C7.3667 16.2066 8.34129 17.1812 9.53164 17.1812C10.7225 17.1812 11.6971 16.2061 11.6971 15.0158V12.5645C11.6971 11.4436 12.5712 10.5269 13.6392 10.5269C14.7072 10.5269 15.5813 11.4436 15.5813 12.5645V13.4892" stroke="#006274" stroke-miterlimit="10"/>
<path d="M15.571 16.4975C16.3858 16.4975 17.0463 15.837 17.0463 15.0222C17.0463 14.2074 16.3858 13.5469 15.571 13.5469C14.7562 13.5469 14.0957 14.2074 14.0957 15.0222C14.0957 15.837 14.7562 16.4975 15.571 16.4975Z" stroke="#006274" stroke-miterlimit="10"/>
<path d="M15.5713 15.2028C15.6709 15.2028 15.7516 15.1221 15.7516 15.0225C15.7516 14.923 15.6709 14.8423 15.5713 14.8423C15.4718 14.8423 15.3911 14.923 15.3911 15.0225C15.3911 15.1221 15.4718 15.2028 15.5713 15.2028Z" fill="#394553" stroke="#394553" stroke-width="2.5" stroke-miterlimit="10"/>
</svg>
