<svg width="20" height="20" viewBox="0 0 20 20" fill="none" xmlns="http://www.w3.org/2000/svg">
<path d="M14.3993 14.4434C15.2339 14.4434 15.9099 15.1194 15.9099 15.9535C15.9099 16.7871 15.2339 17.4631 14.3993 17.4631C13.5656 17.4631 12.8896 16.7871 12.8896 15.9535C12.8896 15.5243 13.0685 15.1368 13.3553 14.8619" stroke="#006274" stroke-miterlimit="10" stroke-linecap="round" stroke-linejoin="round"/>
<path d="M11.3166 12.9738C11.3166 15.4531 9.30676 17.4632 6.82582 17.4632C4.34629 17.4632 2.33594 15.4531 2.33594 12.9738C2.33594 10.4945 4.34629 8.48438 6.82582 8.48438C9.30676 8.48438 11.3166 10.4945 11.3166 12.9738Z" stroke="#006274" stroke-miterlimit="10" stroke-linejoin="round"/>
<path d="M6.82565 9.81738C8.57012 9.81738 9.9833 11.2303 9.9833 12.9736C9.9833 14.7169 8.57012 16.1298 6.82565 16.1298C5.08259 16.1298 3.66895 14.7167 3.66895 12.9736C3.66895 12.3833 3.8313 11.8308 4.11389 11.3579" stroke="#006274" stroke-miterlimit="10" stroke-linecap="round" stroke-linejoin="round"/>
<path d="M9.12158 9.03516C9.12158 9.03516 12.3501 9.03516 12.6176 9.03516C12.9595 9.03516 14.3973 9.0608 14.3973 10.917C14.3973 12.5636 14.3973 15.9952 14.3973 15.9952" stroke="#006274" stroke-miterlimit="10" stroke-linecap="round"/>
<path d="M5.84384 8.56634L4.99725 3.79693C4.99725 3.79693 4.77161 2.97363 3.90902 2.97363L3.49561 3.01622" stroke="#006274" stroke-miterlimit="10" stroke-linejoin="round"/>
<path d="M5.61914 6.55957H12.4135" stroke="#006274" stroke-miterlimit="10" stroke-linecap="round" stroke-linejoin="round"/>
<path d="M10.5625 6.60645V9.0095" stroke="#006274" stroke-miterlimit="10" stroke-linejoin="round"/>
<path d="M0.817617 3.39037C0.850793 3.66402 1.10138 3.86049 1.37456 3.82732L3.02844 3.62685C3.30185 3.59367 3.49832 3.34285 3.46538 3.06967L3.45362 2.97649C3.42044 2.70308 3.16985 2.50661 2.89668 2.53979L1.24279 2.74026C0.969382 2.7732 0.772911 3.02402 0.805852 3.29743L0.817617 3.39037Z" stroke="#006274" stroke-miterlimit="10" stroke-linejoin="round"/>
<path d="M13.4852 10.9365H10.8696" stroke="#006274" stroke-miterlimit="10"/>
<path d="M19.1977 14.8635L17.9582 15.2207C17.194 15.3774 16.9794 14.7451 16.9794 14.7451L15.5667 11.5098C15.2528 10.8593 14.4702 10.9364 14.4702 10.9364" stroke="#006274" stroke-miterlimit="10"/>
<path d="M6.82367 13.1805C6.93932 13.1805 7.03308 13.0868 7.03308 12.9711C7.03308 12.8555 6.93932 12.7617 6.82367 12.7617C6.70801 12.7617 6.61426 12.8555 6.61426 12.9711C6.61426 13.0868 6.70801 13.1805 6.82367 13.1805Z" fill="#006274" stroke="#006274" stroke-width="2.5" stroke-miterlimit="10"/>
</svg>
