<svg width="2086" height="618" viewBox="0 0 2086 618" fill="none" xmlns="http://www.w3.org/2000/svg">
<path opacity="0.05" d="M0 618C347.667 209.759 695.333 39.8798 1043 108.362C1390.67 176.844 1738.33 346.723 2086 618" stroke="url(#paint0_linear_152_3919)" stroke-linecap="round"/>
<path opacity="0.07" d="M0 605.408C347.667 205.562 695.333 39.8802 1043 108.362C1390.67 176.844 1738.33 342.526 2086 605.408" stroke="url(#paint1_linear_152_3919)" stroke-linecap="round"/>
<path opacity="0.09" d="M0 592.816C347.667 201.365 695.333 39.8799 1043 108.362C1390.67 176.844 1738.33 338.329 2086 592.816" stroke="url(#paint2_linear_152_3919)" stroke-linecap="round"/>
<path opacity="0.11" d="M0 580.225C347.667 197.168 695.333 39.8801 1043 108.362C1390.67 176.844 1738.33 334.131 2086 580.225" stroke="url(#paint3_linear_152_3919)" stroke-linecap="round"/>
<path opacity="0.13" d="M0 567.633C347.667 192.971 695.333 39.8803 1043 108.362C1390.67 176.844 1738.33 329.934 2086 567.633" stroke="url(#paint4_linear_152_3919)" stroke-linecap="round"/>
<path opacity="0.15" d="M0 555.041C347.667 188.773 695.333 39.8802 1043 108.362C1390.67 176.844 1738.33 325.737 2086 555.041" stroke="url(#paint5_linear_152_3919)" stroke-linecap="round"/>
<path opacity="0.16" d="M0 542.449C347.667 184.576 695.333 39.8799 1043 108.362C1390.67 176.844 1738.33 321.539 2086 542.449" stroke="url(#paint6_linear_152_3919)" stroke-linecap="round"/>
<path opacity="0.18" d="M0 529.857C347.667 180.379 695.333 39.8802 1043 108.362C1390.67 176.844 1738.33 317.343 2086 529.857" stroke="url(#paint7_linear_152_3919)" stroke-linecap="round"/>
<path opacity="0.2" d="M0 517.265C347.667 176.181 695.333 39.88 1043 108.362C1390.67 176.844 1738.33 313.145 2086 517.265" stroke="url(#paint8_linear_152_3919)" stroke-linecap="round"/>
<path opacity="0.22" d="M0 504.674C347.667 171.984 695.333 39.88 1043 108.362C1390.67 176.844 1738.33 308.948 2086 504.674" stroke="url(#paint9_linear_152_3919)" stroke-linecap="round"/>
<path opacity="0.24" d="M0 492.082C347.667 167.787 695.333 39.8803 1043 108.362C1390.67 176.844 1738.33 304.751 2086 492.082" stroke="url(#paint10_linear_152_3919)" stroke-linecap="round"/>
<path opacity="0.26" d="M0 479.49C347.667 163.589 695.333 39.8798 1043 108.362C1390.67 176.844 1738.33 300.553 2086 479.49" stroke="url(#paint11_linear_152_3919)" stroke-linecap="round"/>
<path opacity="0.28" d="M0 466.898C347.667 159.392 695.333 39.8802 1043 108.362C1390.67 176.844 1738.33 296.356 2086 466.898" stroke="url(#paint12_linear_152_3919)" stroke-linecap="round"/>
<path opacity="0.3" d="M0 454.306C347.667 155.194 695.333 39.8798 1043 108.362C1390.67 176.844 1738.33 292.158 2086 454.306" stroke="url(#paint13_linear_152_3919)" stroke-linecap="round"/>
<path opacity="0.32" d="M0 441.715C347.667 150.998 695.333 39.8802 1043 108.362C1390.67 176.844 1738.33 287.962 2086 441.715" stroke="url(#paint14_linear_152_3919)" stroke-linecap="round"/>
<path opacity="0.33" d="M0 429.123C347.667 146.8 695.333 39.8801 1043 108.362C1390.67 176.844 1738.33 283.764 2086 429.123" stroke="url(#paint15_linear_152_3919)" stroke-linecap="round"/>
<path opacity="0.35" d="M0 416.531C347.667 142.603 695.333 39.88 1043 108.362C1390.67 176.844 1738.33 279.567 2086 416.531" stroke="url(#paint16_linear_152_3919)" stroke-linecap="round"/>
<path opacity="0.37" d="M0 403.939C347.667 138.406 695.333 39.8803 1043 108.362C1390.67 176.844 1738.33 275.37 2086 403.939" stroke="url(#paint17_linear_152_3919)" stroke-linecap="round"/>
<path opacity="0.39" d="M0 391.347C347.667 134.209 695.333 39.8802 1043 108.362C1390.67 176.844 1738.33 271.172 2086 391.347" stroke="url(#paint18_linear_152_3919)" stroke-linecap="round"/>
<path opacity="0.41" d="M0 378.755C347.667 130.011 695.333 39.8801 1043 108.362C1390.67 176.844 1738.33 266.975 2086 378.755" stroke="url(#paint19_linear_152_3919)" stroke-linecap="round"/>
<path opacity="0.43" d="M0 366.163C347.667 125.814 695.333 39.8799 1043 108.362C1390.67 176.844 1738.33 262.778 2086 366.163" stroke="url(#paint20_linear_152_3919)" stroke-linecap="round"/>
<path opacity="0.45" d="M0 353.572C347.667 121.617 695.333 39.8801 1043 108.362C1390.67 176.844 1738.33 258.58 2086 353.572" stroke="url(#paint21_linear_152_3919)" stroke-linecap="round"/>
<path opacity="0.47" d="M0 340.98C347.667 117.42 695.333 39.8803 1043 108.362C1390.67 176.844 1738.33 254.383 2086 340.98" stroke="url(#paint22_linear_152_3919)" stroke-linecap="round"/>
<path opacity="0.49" d="M0 328.388C347.667 113.222 695.333 39.8803 1043 108.362C1390.67 176.844 1738.33 250.186 2086 328.388" stroke="url(#paint23_linear_152_3919)" stroke-linecap="round"/>
<path opacity="0.51" d="M0 315.796C347.667 109.025 695.333 39.8803 1043 108.362C1390.67 176.844 1738.33 245.989 2086 315.796" stroke="url(#paint24_linear_152_3919)" stroke-linecap="round"/>
<path opacity="0.53" d="M0 303.204C347.667 104.827 695.333 39.8801 1043 108.362C1390.67 176.844 1738.33 241.791 2086 303.204" stroke="url(#paint25_linear_152_3919)" stroke-linecap="round"/>
<path opacity="0.54" d="M0 290.612C347.667 100.63 695.333 39.8803 1043 108.362C1390.67 176.844 1738.33 237.594 2086 290.612" stroke="url(#paint26_linear_152_3919)" stroke-linecap="round"/>
<path opacity="0.56" d="M0 278.02C347.667 96.4327 695.333 39.8799 1043 108.362C1390.67 176.844 1738.33 233.397 2086 278.02" stroke="url(#paint27_linear_152_3919)" stroke-linecap="round"/>
<path opacity="0.58" d="M0 265.428C347.667 92.2355 695.333 39.8799 1043 108.362C1390.67 176.844 1738.33 229.199 2086 265.428" stroke="url(#paint28_linear_152_3919)" stroke-linecap="round"/>
<path opacity="0.6" d="M0 252.837C347.667 88.0383 695.333 39.88 1043 108.362C1390.67 176.844 1738.33 225.002 2086 252.837" stroke="url(#paint29_linear_152_3919)" stroke-linecap="round"/>
<path opacity="0.62" d="M0 240.245C347.667 83.8411 695.333 39.8802 1043 108.362C1390.67 176.844 1738.33 220.805 2086 240.245" stroke="url(#paint30_linear_152_3919)" stroke-linecap="round"/>
<path opacity="0.64" d="M0 227.653C347.667 79.6439 695.333 39.8802 1043 108.362C1390.67 176.844 1738.33 216.608 2086 227.653" stroke="url(#paint31_linear_152_3919)" stroke-linecap="round"/>
<path opacity="0.66" d="M0 215.061C347.667 75.4464 695.333 39.88 1043 108.362C1390.67 176.844 1738.33 212.41 2086 215.061" stroke="url(#paint32_linear_152_3919)" stroke-linecap="round"/>
<path opacity="0.68" d="M0 202.469C347.667 71.2492 695.333 39.8801 1043 108.362C1390.67 176.844 1738.33 208.213 2086 202.469" stroke="url(#paint33_linear_152_3919)" stroke-linecap="round"/>
<path opacity="0.7" d="M0 189.878C347.667 67.0522 695.333 39.8804 1043 108.362C1390.67 176.844 1738.33 204.016 2086 189.878" stroke="url(#paint34_linear_152_3919)" stroke-linecap="round"/>
<path opacity="0.71" d="M0 177.286C347.667 62.8545 695.333 39.88 1043 108.362C1390.67 176.844 1738.33 199.818 2086 177.286" stroke="url(#paint35_linear_152_3919)" stroke-linecap="round"/>
<path opacity="0.73" d="M0 164.694C347.667 58.6576 695.333 39.8803 1043 108.362C1390.67 176.844 1738.33 195.621 2086 164.694" stroke="url(#paint36_linear_152_3919)" stroke-linecap="round"/>
<path opacity="0.75" d="M0 152.102C347.667 54.4601 695.333 39.8801 1043 108.362C1390.67 176.844 1738.33 191.424 2086 152.102" stroke="url(#paint37_linear_152_3919)" stroke-linecap="round"/>
<path opacity="0.77" d="M0 139.51C347.667 50.2626 695.333 39.8799 1043 108.362C1390.67 176.844 1738.33 187.226 2086 139.51" stroke="url(#paint38_linear_152_3919)" stroke-linecap="round"/>
<path opacity="0.79" d="M0 126.918C347.667 46.0656 695.333 39.8801 1043 108.362C1390.67 176.844 1738.33 183.029 2086 126.918" stroke="url(#paint39_linear_152_3919)" stroke-linecap="round"/>
<path opacity="0.81" d="M0 114.327C347.667 41.8683 695.333 39.8802 1043 108.362C1390.67 176.844 1738.33 178.832 2086 114.327" stroke="url(#paint40_linear_152_3919)" stroke-linecap="round"/>
<path opacity="0.83" d="M0 101.735C347.667 37.671 695.333 39.8801 1043 108.362C1390.67 176.844 1738.33 174.635 2086 101.735" stroke="url(#paint41_linear_152_3919)" stroke-linecap="round"/>
<path opacity="0.85" d="M0 89.1427C347.667 33.4735 695.333 39.8799 1043 108.362C1390.67 176.844 1738.33 170.437 2086 89.1427" stroke="url(#paint42_linear_152_3919)" stroke-linecap="round"/>
<path opacity="0.87" d="M0 76.551C347.667 29.2764 695.333 39.8801 1043 108.362C1390.67 176.844 1738.33 166.24 2086 76.551" stroke="url(#paint43_linear_152_3919)" stroke-linecap="round"/>
<path opacity="0.89" d="M0 63.9589C347.667 25.0788 695.333 39.8798 1043 108.362C1390.67 176.844 1738.33 162.043 2086 63.9589" stroke="url(#paint44_linear_152_3919)" stroke-linecap="round"/>
<path opacity="0.91" d="M0 51.3672C347.667 20.8817 695.333 39.8799 1043 108.362C1390.67 176.844 1738.33 157.846 2086 51.3672" stroke="url(#paint45_linear_152_3919)" stroke-linecap="round"/>
<path opacity="0.92" d="M0 38.7754C347.667 16.6845 695.333 39.88 1043 108.362C1390.67 176.844 1738.33 153.648 2086 38.7754" stroke="url(#paint46_linear_152_3919)" stroke-linecap="round"/>
<path opacity="0.94" d="M0 26.1834C347.667 12.487 695.333 39.8798 1043 108.362C1390.67 176.844 1738.33 149.451 2086 26.1834" stroke="url(#paint47_linear_152_3919)" stroke-linecap="round"/>
<path opacity="0.96" d="M0 13.592C347.667 8.29014 695.333 39.8802 1043 108.362C1390.67 176.844 1738.33 145.254 2086 13.592" stroke="url(#paint48_linear_152_3919)" stroke-linecap="round"/>
<path opacity="0.98" d="M0 1C347.667 4.09273 695.333 39.8801 1043 108.362C1390.67 176.844 1738.33 141.057 2086 1" stroke="url(#paint49_linear_152_3919)" stroke-linecap="round"/>
<defs>
<linearGradient id="paint0_linear_152_3919" x1="-150.746" y1="618" x2="2087.27" y2="99.0839" gradientUnits="userSpaceOnUse">
<stop stop-color="#00A2A2"/>
<stop offset="1" stop-color="#006274"/>
</linearGradient>
<linearGradient id="paint1_linear_152_3919" x1="-150.746" y1="605.409" x2="2081.72" y2="75.318" gradientUnits="userSpaceOnUse">
<stop stop-color="#00A2A2"/>
<stop offset="1" stop-color="#006274"/>
</linearGradient>
<linearGradient id="paint2_linear_152_3919" x1="-150.746" y1="592.816" x2="2075.79" y2="51.1031" gradientUnits="userSpaceOnUse">
<stop stop-color="#00A2A2"/>
<stop offset="1" stop-color="#006274"/>
</linearGradient>
<linearGradient id="paint3_linear_152_3919" x1="-150.746" y1="580.225" x2="2069.45" y2="26.4163" gradientUnits="userSpaceOnUse">
<stop stop-color="#00A2A2"/>
<stop offset="1" stop-color="#006274"/>
</linearGradient>
<linearGradient id="paint4_linear_152_3919" x1="-150.746" y1="567.633" x2="2062.65" y2="1.23159" gradientUnits="userSpaceOnUse">
<stop stop-color="#00A2A2"/>
<stop offset="1" stop-color="#006274"/>
</linearGradient>
<linearGradient id="paint5_linear_152_3919" x1="-150.746" y1="555.041" x2="2055.35" y2="-24.4781" gradientUnits="userSpaceOnUse">
<stop stop-color="#00A2A2"/>
<stop offset="1" stop-color="#006274"/>
</linearGradient>
<linearGradient id="paint6_linear_152_3919" x1="-150.746" y1="542.449" x2="2047.52" y2="-50.7409" gradientUnits="userSpaceOnUse">
<stop stop-color="#00A2A2"/>
<stop offset="1" stop-color="#006274"/>
</linearGradient>
<linearGradient id="paint7_linear_152_3919" x1="-150.746" y1="529.858" x2="2039.09" y2="-77.5859" gradientUnits="userSpaceOnUse">
<stop stop-color="#00A2A2"/>
<stop offset="1" stop-color="#006274"/>
</linearGradient>
<linearGradient id="paint8_linear_152_3919" x1="-150.746" y1="517.265" x2="2030" y2="-105.045" gradientUnits="userSpaceOnUse">
<stop stop-color="#00A2A2"/>
<stop offset="1" stop-color="#006274"/>
</linearGradient>
<linearGradient id="paint9_linear_152_3919" x1="-150.746" y1="504.674" x2="2020.2" y2="-133.15" gradientUnits="userSpaceOnUse">
<stop stop-color="#00A2A2"/>
<stop offset="1" stop-color="#006274"/>
</linearGradient>
<linearGradient id="paint10_linear_152_3919" x1="-150.746" y1="492.082" x2="2009.59" y2="-161.934" gradientUnits="userSpaceOnUse">
<stop stop-color="#00A2A2"/>
<stop offset="1" stop-color="#006274"/>
</linearGradient>
<linearGradient id="paint11_linear_152_3919" x1="-150.746" y1="479.49" x2="1998.11" y2="-191.431" gradientUnits="userSpaceOnUse">
<stop stop-color="#00A2A2"/>
<stop offset="1" stop-color="#006274"/>
</linearGradient>
<linearGradient id="paint12_linear_152_3919" x1="-150.746" y1="466.898" x2="1985.66" y2="-221.676" gradientUnits="userSpaceOnUse">
<stop stop-color="#00A2A2"/>
<stop offset="1" stop-color="#006274"/>
</linearGradient>
<linearGradient id="paint13_linear_152_3919" x1="-150.746" y1="454.306" x2="1972.12" y2="-252.704" gradientUnits="userSpaceOnUse">
<stop stop-color="#00A2A2"/>
<stop offset="1" stop-color="#006274"/>
</linearGradient>
<linearGradient id="paint14_linear_152_3919" x1="-150.746" y1="441.715" x2="1957.39" y2="-284.547" gradientUnits="userSpaceOnUse">
<stop stop-color="#00A2A2"/>
<stop offset="1" stop-color="#006274"/>
</linearGradient>
<linearGradient id="paint15_linear_152_3919" x1="-150.746" y1="429.123" x2="1941.32" y2="-317.24" gradientUnits="userSpaceOnUse">
<stop stop-color="#00A2A2"/>
<stop offset="1" stop-color="#006274"/>
</linearGradient>
<linearGradient id="paint16_linear_152_3919" x1="-150.746" y1="416.531" x2="1923.76" y2="-350.81" gradientUnits="userSpaceOnUse">
<stop stop-color="#00A2A2"/>
<stop offset="1" stop-color="#006274"/>
</linearGradient>
<linearGradient id="paint17_linear_152_3919" x1="-150.746" y1="403.939" x2="1904.53" y2="-385.283" gradientUnits="userSpaceOnUse">
<stop stop-color="#00A2A2"/>
<stop offset="1" stop-color="#006274"/>
</linearGradient>
<linearGradient id="paint18_linear_152_3919" x1="-150.746" y1="391.347" x2="1883.44" y2="-420.676" gradientUnits="userSpaceOnUse">
<stop stop-color="#00A2A2"/>
<stop offset="1" stop-color="#006274"/>
</linearGradient>
<linearGradient id="paint19_linear_152_3919" x1="-150.746" y1="378.755" x2="1860.26" y2="-456.996" gradientUnits="userSpaceOnUse">
<stop stop-color="#00A2A2"/>
<stop offset="1" stop-color="#006274"/>
</linearGradient>
<linearGradient id="paint20_linear_152_3919" x1="-150.746" y1="366.163" x2="1834.74" y2="-494.239" gradientUnits="userSpaceOnUse">
<stop stop-color="#00A2A2"/>
<stop offset="1" stop-color="#006274"/>
</linearGradient>
<linearGradient id="paint21_linear_152_3919" x1="-150.746" y1="353.572" x2="1806.58" y2="-532.379" gradientUnits="userSpaceOnUse">
<stop stop-color="#00A2A2"/>
<stop offset="1" stop-color="#006274"/>
</linearGradient>
<linearGradient id="paint22_linear_152_3919" x1="-150.746" y1="340.98" x2="1775.46" y2="-571.365" gradientUnits="userSpaceOnUse">
<stop stop-color="#00A2A2"/>
<stop offset="1" stop-color="#006274"/>
</linearGradient>
<linearGradient id="paint23_linear_152_3919" x1="-150.746" y1="328.388" x2="1741" y2="-611.113" gradientUnits="userSpaceOnUse">
<stop stop-color="#00A2A2"/>
<stop offset="1" stop-color="#006274"/>
</linearGradient>
<linearGradient id="paint24_linear_152_3919" x1="-150.746" y1="315.796" x2="1702.8" y2="-651.493" gradientUnits="userSpaceOnUse">
<stop stop-color="#00A2A2"/>
<stop offset="1" stop-color="#006274"/>
</linearGradient>
<linearGradient id="paint25_linear_152_3919" x1="-150.746" y1="303.204" x2="1660.38" y2="-692.316" gradientUnits="userSpaceOnUse">
<stop stop-color="#00A2A2"/>
<stop offset="1" stop-color="#006274"/>
</linearGradient>
<linearGradient id="paint26_linear_152_3919" x1="-150.746" y1="290.613" x2="1613.24" y2="-733.315" gradientUnits="userSpaceOnUse">
<stop stop-color="#00A2A2"/>
<stop offset="1" stop-color="#006274"/>
</linearGradient>
<linearGradient id="paint27_linear_152_3919" x1="-150.746" y1="278.02" x2="1560.79" y2="-774.127" gradientUnits="userSpaceOnUse">
<stop stop-color="#00A2A2"/>
<stop offset="1" stop-color="#006274"/>
</linearGradient>
<linearGradient id="paint28_linear_152_3919" x1="-150.746" y1="265.429" x2="1502.46" y2="-814.259" gradientUnits="userSpaceOnUse">
<stop stop-color="#00A2A2"/>
<stop offset="1" stop-color="#006274"/>
</linearGradient>
<linearGradient id="paint29_linear_152_3919" x1="-150.746" y1="252.837" x2="1437.59" y2="-853.063" gradientUnits="userSpaceOnUse">
<stop stop-color="#00A2A2"/>
<stop offset="1" stop-color="#006274"/>
</linearGradient>
<linearGradient id="paint30_linear_152_3919" x1="-150.746" y1="240.245" x2="1365.57" y2="-889.697" gradientUnits="userSpaceOnUse">
<stop stop-color="#00A2A2"/>
<stop offset="1" stop-color="#006274"/>
</linearGradient>
<linearGradient id="paint31_linear_152_3919" x1="-150.746" y1="227.653" x2="1285.78" y2="-923.086" gradientUnits="userSpaceOnUse">
<stop stop-color="#00A2A2"/>
<stop offset="1" stop-color="#006274"/>
</linearGradient>
<linearGradient id="paint32_linear_152_3919" x1="-150.746" y1="215.061" x2="1197.74" y2="-951.886" gradientUnits="userSpaceOnUse">
<stop stop-color="#00A2A2"/>
<stop offset="1" stop-color="#006274"/>
</linearGradient>
<linearGradient id="paint33_linear_152_3919" x1="-150.746" y1="203.136" x2="1107.18" y2="-973.398" gradientUnits="userSpaceOnUse">
<stop stop-color="#00A2A2"/>
<stop offset="1" stop-color="#006274"/>
</linearGradient>
<linearGradient id="paint34_linear_152_3919" x1="-150.746" y1="193.507" x2="1031.6" y2="-985.656" gradientUnits="userSpaceOnUse">
<stop stop-color="#00A2A2"/>
<stop offset="1" stop-color="#006274"/>
</linearGradient>
<linearGradient id="paint35_linear_152_3919" x1="-150.746" y1="185.653" x2="970.449" y2="-992.088" gradientUnits="userSpaceOnUse">
<stop stop-color="#00A2A2"/>
<stop offset="1" stop-color="#006274"/>
</linearGradient>
<linearGradient id="paint36_linear_152_3919" x1="-150.746" y1="179.127" x2="922.058" y2="-995.233" gradientUnits="userSpaceOnUse">
<stop stop-color="#00A2A2"/>
<stop offset="1" stop-color="#006274"/>
</linearGradient>
<linearGradient id="paint37_linear_152_3919" x1="-150.746" y1="173.616" x2="885.018" y2="-996.798" gradientUnits="userSpaceOnUse">
<stop stop-color="#00A2A2"/>
<stop offset="1" stop-color="#006274"/>
</linearGradient>
<linearGradient id="paint38_linear_152_3919" x1="-150.746" y1="168.902" x2="858.224" y2="-997.918" gradientUnits="userSpaceOnUse">
<stop stop-color="#00A2A2"/>
<stop offset="1" stop-color="#006274"/>
</linearGradient>
<linearGradient id="paint39_linear_152_3919" x1="-150.746" y1="164.823" x2="840.872" y2="-999.333" gradientUnits="userSpaceOnUse">
<stop stop-color="#00A2A2"/>
<stop offset="1" stop-color="#006274"/>
</linearGradient>
<linearGradient id="paint40_linear_152_3919" x1="-150.746" y1="161.259" x2="832.436" y2="-1001.51" gradientUnits="userSpaceOnUse">
<stop stop-color="#00A2A2"/>
<stop offset="1" stop-color="#006274"/>
</linearGradient>
<linearGradient id="paint41_linear_152_3919" x1="-150.746" y1="158.118" x2="832.663" y2="-1004.69" gradientUnits="userSpaceOnUse">
<stop stop-color="#00A2A2"/>
<stop offset="1" stop-color="#006274"/>
</linearGradient>
<linearGradient id="paint42_linear_152_3919" x1="-150.746" y1="155.33" x2="841.559" y2="-1008.94" gradientUnits="userSpaceOnUse">
<stop stop-color="#00A2A2"/>
<stop offset="1" stop-color="#006274"/>
</linearGradient>
<linearGradient id="paint43_linear_152_3919" x1="-150.746" y1="152.837" x2="859.394" y2="-1014.15" gradientUnits="userSpaceOnUse">
<stop stop-color="#00A2A2"/>
<stop offset="1" stop-color="#006274"/>
</linearGradient>
<linearGradient id="paint44_linear_152_3919" x1="-150.746" y1="150.595" x2="886.704" y2="-1020.02" gradientUnits="userSpaceOnUse">
<stop stop-color="#00A2A2"/>
<stop offset="1" stop-color="#006274"/>
</linearGradient>
<linearGradient id="paint45_linear_152_3919" x1="-150.746" y1="148.569" x2="924.311" y2="-1025.99" gradientUnits="userSpaceOnUse">
<stop stop-color="#00A2A2"/>
<stop offset="1" stop-color="#006274"/>
</linearGradient>
<linearGradient id="paint46_linear_152_3919" x1="-150.746" y1="146.728" x2="973.335" y2="-1031.15" gradientUnits="userSpaceOnUse">
<stop stop-color="#00A2A2"/>
<stop offset="1" stop-color="#006274"/>
</linearGradient>
<linearGradient id="paint47_linear_152_3919" x1="-150.746" y1="145.048" x2="1035.2" y2="-1034.1" gradientUnits="userSpaceOnUse">
<stop stop-color="#00A2A2"/>
<stop offset="1" stop-color="#006274"/>
</linearGradient>
<linearGradient id="paint48_linear_152_3919" x1="-150.746" y1="143.51" x2="1111.59" y2="-1032.72" gradientUnits="userSpaceOnUse">
<stop stop-color="#00A2A2"/>
<stop offset="1" stop-color="#006274"/>
</linearGradient>
<linearGradient id="paint49_linear_152_3919" x1="-150.746" y1="142.095" x2="1202.59" y2="-1024.14" gradientUnits="userSpaceOnUse">
<stop stop-color="#00A2A2"/>
<stop offset="1" stop-color="#006274"/>
</linearGradient>
</defs>
</svg>
