<svg width="1170" height="293" viewBox="0 0 1170 293" fill="none" xmlns="http://www.w3.org/2000/svg">
<mask id="mask0_1195_5308" style="mask-type:luminance" maskUnits="userSpaceOnUse" x="-1214" y="228" width="2384" height="294">
<path d="M1126.67 521.906L1170 521.906L1170 228.906L1126.67 228.906L1126.67 521.906Z" fill="white"/>
<path d="M1040 521.906L1083.33 521.906L1083.33 228.906L1040 228.906L1040 521.906Z" fill="white"/>
<path d="M953.334 521.906L996.667 521.906L996.667 228.906L953.334 228.906L953.334 521.906Z" fill="white"/>
<path d="M866.667 521.906L910 521.906L910 228.906L866.667 228.906L866.667 521.906Z" fill="white"/>
<path d="M780 521.906L823.333 521.906L823.333 228.906L780 228.906L780 521.906Z" fill="white"/>
<path d="M693.334 521.906L736.667 521.906L736.667 228.906L693.334 228.906L693.334 521.906Z" fill="white"/>
<path d="M606.667 521.906L650 521.906L650 228.906L606.667 228.906L606.667 521.906Z" fill="white"/>
<path d="M520 521.906L563.333 521.906L563.333 228.906L520 228.906L520 521.906Z" fill="white"/>
<path d="M433.334 521.906L476.667 521.906L476.667 228.906L433.334 228.906L433.334 521.906Z" fill="white"/>
<path d="M346.667 521.906L390 521.906L390 228.906L346.667 228.906L346.667 521.906Z" fill="white"/>
<path d="M260 521.906L303.333 521.906L303.333 228.906L260 228.906L260 521.906Z" fill="white"/>
<path d="M173.334 521.906L216.667 521.906L216.667 228.906L173.334 228.906L173.334 521.906Z" fill="white"/>
<path d="M86.6667 521.906L130 521.906L130 228.906L86.6667 228.906L86.6667 521.906Z" fill="white"/>
<path d="M-0.000339508 521.906L43.333 521.906L43.333 228.906L-0.000313893 228.906L-0.000339508 521.906Z" fill="white"/>
</mask>
<g mask="url(#mask0_1195_5308)">
<path opacity="0.37" d="M1194.13 515.863L1145.87 527.949L-24.1316 234.949L24.1309 222.863L1194.13 515.863Z" fill="url(#paint0_radial_1195_5308)" fill-opacity="0.3"/>
</g>
<mask id="mask1_1195_5308" style="mask-type:luminance" maskUnits="userSpaceOnUse" x="-1170" y="254" width="2297" height="294">
<path d="M1083.33 547.177L1126.67 547.177L1126.67 254.178L1083.33 254.178L1083.33 547.177Z" fill="white"/>
<path d="M996.667 547.177L1040 547.177L1040 254.178L996.667 254.178L996.667 547.177Z" fill="white"/>
<path d="M910.001 547.177L953.334 547.177L953.334 254.178L910.001 254.178L910.001 547.177Z" fill="white"/>
<path d="M823.334 547.177L866.667 547.177L866.667 254.178L823.334 254.178L823.334 547.177Z" fill="white"/>
<path d="M736.667 547.177L780 547.177L780 254.178L736.667 254.178L736.667 547.177Z" fill="white"/>
<path d="M650.001 547.177L693.334 547.177L693.334 254.178L650.001 254.178L650.001 547.177Z" fill="white"/>
<path d="M563.334 547.177L606.667 547.177L606.667 254.178L563.334 254.178L563.334 547.177Z" fill="white"/>
<path d="M476.667 547.177L520 547.177L520 254.178L476.667 254.178L476.667 547.177Z" fill="white"/>
<path d="M390.001 547.177L433.334 547.177L433.334 254.178L390.001 254.178L390.001 547.177Z" fill="white"/>
<path d="M303.334 547.177L346.667 547.177L346.667 254.177L303.334 254.177L303.334 547.177Z" fill="white"/>
<path d="M216.667 547.177L260 547.177L260 254.177L216.667 254.177L216.667 547.177Z" fill="white"/>
<path d="M130.001 547.177L173.334 547.177L173.334 254.177L130.001 254.177L130.001 547.177Z" fill="white"/>
<path d="M43.3336 547.177L86.667 547.177L86.667 254.177L43.3337 254.177L43.3336 547.177Z" fill="white"/>
</mask>
<g mask="url(#mask1_1195_5308)">
<path d="M1194.13 541.134L1145.87 553.221L-24.1306 260.221L24.1319 248.134L1194.13 541.134Z" fill="url(#paint1_radial_1195_5308)" fill-opacity="0.3"/>
</g>
<mask id="mask2_1195_5308" style="mask-type:luminance" maskUnits="userSpaceOnUse" x="-1214" y="184" width="2384" height="294">
<path d="M1126.67 477.956L1170 477.956L1170 184.956L1126.67 184.956L1126.67 477.956Z" fill="white"/>
<path d="M1040 477.956L1083.33 477.956L1083.33 184.956L1040 184.956L1040 477.956Z" fill="white"/>
<path d="M953.334 477.956L996.667 477.956L996.667 184.956L953.334 184.956L953.334 477.956Z" fill="white"/>
<path d="M866.667 477.956L910 477.956L910 184.956L866.667 184.956L866.667 477.956Z" fill="white"/>
<path d="M780 477.956L823.333 477.956L823.333 184.956L780 184.956L780 477.956Z" fill="white"/>
<path d="M693.334 477.956L736.667 477.956L736.667 184.956L693.334 184.956L693.334 477.956Z" fill="white"/>
<path d="M606.667 477.956L650 477.956L650 184.956L606.667 184.956L606.667 477.956Z" fill="white"/>
<path d="M520 477.956L563.333 477.956L563.333 184.956L520 184.956L520 477.956Z" fill="white"/>
<path d="M433.334 477.956L476.667 477.956L476.667 184.956L433.334 184.956L433.334 477.956Z" fill="white"/>
<path d="M346.667 477.956L390 477.956L390 184.956L346.667 184.956L346.667 477.956Z" fill="white"/>
<path d="M260 477.956L303.333 477.956L303.333 184.956L260 184.956L260 477.956Z" fill="white"/>
<path d="M173.334 477.956L216.667 477.956L216.667 184.956L173.334 184.956L173.334 477.956Z" fill="white"/>
<path d="M86.6667 477.956L130 477.956L130 184.956L86.6667 184.956L86.6667 477.956Z" fill="white"/>
<path d="M-0.000339508 477.956L43.333 477.956L43.333 184.956L-0.000313893 184.956L-0.000339508 477.956Z" fill="white"/>
</mask>
<g mask="url(#mask2_1195_5308)">
<path opacity="0.37" d="M1194.13 471.913L1145.87 483.999L-24.1316 190.999L24.1309 178.913L1194.13 471.913Z" fill="url(#paint2_radial_1195_5308)" fill-opacity="0.3"/>
</g>
<mask id="mask3_1195_5308" style="mask-type:luminance" maskUnits="userSpaceOnUse" x="-1170" y="210" width="2297" height="294">
<path d="M1083.33 503.228L1126.67 503.228L1126.67 210.228L1083.33 210.228L1083.33 503.228Z" fill="white"/>
<path d="M996.667 503.228L1040 503.228L1040 210.228L996.667 210.228L996.667 503.228Z" fill="white"/>
<path d="M910.001 503.228L953.334 503.228L953.334 210.228L910.001 210.228L910.001 503.228Z" fill="white"/>
<path d="M823.334 503.228L866.667 503.228L866.667 210.228L823.334 210.228L823.334 503.228Z" fill="white"/>
<path d="M736.667 503.228L780 503.228L780 210.228L736.667 210.228L736.667 503.228Z" fill="white"/>
<path d="M650.001 503.228L693.334 503.228L693.334 210.228L650.001 210.228L650.001 503.228Z" fill="white"/>
<path d="M563.334 503.228L606.667 503.228L606.667 210.228L563.334 210.228L563.334 503.228Z" fill="white"/>
<path d="M476.667 503.228L520 503.228L520 210.228L476.667 210.228L476.667 503.228Z" fill="white"/>
<path d="M390.001 503.228L433.334 503.228L433.334 210.228L390.001 210.228L390.001 503.228Z" fill="white"/>
<path d="M303.334 503.228L346.667 503.228L346.667 210.228L303.334 210.228L303.334 503.228Z" fill="white"/>
<path d="M216.667 503.228L260 503.228L260 210.228L216.667 210.228L216.667 503.228Z" fill="white"/>
<path d="M130.001 503.228L173.334 503.228L173.334 210.228L130.001 210.228L130.001 503.228Z" fill="white"/>
<path d="M43.3336 503.228L86.667 503.228L86.667 210.228L43.3337 210.228L43.3336 503.228Z" fill="white"/>
</mask>
<g mask="url(#mask3_1195_5308)">
<path d="M1194.13 497.185L1145.87 509.271L-24.1306 216.271L24.1319 204.184L1194.13 497.185Z" fill="url(#paint3_radial_1195_5308)" fill-opacity="0.3"/>
</g>
<mask id="mask4_1195_5308" style="mask-type:luminance" maskUnits="userSpaceOnUse" x="-1214" y="141" width="2384" height="294">
<path d="M1126.67 434.006L1170 434.006L1170 141.006L1126.67 141.006L1126.67 434.006Z" fill="white"/>
<path d="M1040 434.006L1083.33 434.006L1083.33 141.006L1040 141.006L1040 434.006Z" fill="white"/>
<path d="M953.334 434.006L996.667 434.006L996.667 141.006L953.334 141.006L953.334 434.006Z" fill="white"/>
<path d="M866.667 434.006L910 434.006L910 141.006L866.667 141.006L866.667 434.006Z" fill="white"/>
<path d="M780 434.006L823.333 434.006L823.333 141.006L780 141.006L780 434.006Z" fill="white"/>
<path d="M693.334 434.006L736.667 434.006L736.667 141.006L693.334 141.006L693.334 434.006Z" fill="white"/>
<path d="M606.667 434.006L650 434.006L650 141.006L606.667 141.006L606.667 434.006Z" fill="white"/>
<path d="M520 434.006L563.333 434.006L563.333 141.006L520 141.006L520 434.006Z" fill="white"/>
<path d="M433.334 434.006L476.667 434.006L476.667 141.006L433.334 141.006L433.334 434.006Z" fill="white"/>
<path d="M346.667 434.006L390 434.006L390 141.006L346.667 141.006L346.667 434.006Z" fill="white"/>
<path d="M260 434.006L303.333 434.006L303.333 141.006L260 141.006L260 434.006Z" fill="white"/>
<path d="M173.334 434.006L216.667 434.006L216.667 141.006L173.334 141.006L173.334 434.006Z" fill="white"/>
<path d="M86.6667 434.006L130 434.006L130 141.006L86.6667 141.006L86.6667 434.006Z" fill="white"/>
<path d="M-0.000339508 434.006L43.333 434.006L43.333 141.006L-0.000313893 141.006L-0.000339508 434.006Z" fill="white"/>
</mask>
<g mask="url(#mask4_1195_5308)">
<path opacity="0.37" d="M1194.13 427.963L1145.87 440.049L-24.1316 147.049L24.1309 134.963L1194.13 427.963Z" fill="url(#paint4_radial_1195_5308)" fill-opacity="0.3"/>
</g>
<mask id="mask5_1195_5308" style="mask-type:luminance" maskUnits="userSpaceOnUse" x="-1170" y="166" width="2297" height="294">
<path d="M1083.33 459.277L1126.67 459.277L1126.67 166.278L1083.33 166.278L1083.33 459.277Z" fill="white"/>
<path d="M996.667 459.277L1040 459.277L1040 166.278L996.667 166.278L996.667 459.277Z" fill="white"/>
<path d="M910.001 459.277L953.334 459.277L953.334 166.278L910.001 166.278L910.001 459.277Z" fill="white"/>
<path d="M823.334 459.277L866.667 459.277L866.667 166.278L823.334 166.278L823.334 459.277Z" fill="white"/>
<path d="M736.667 459.277L780 459.277L780 166.278L736.667 166.278L736.667 459.277Z" fill="white"/>
<path d="M650.001 459.277L693.334 459.277L693.334 166.278L650.001 166.278L650.001 459.277Z" fill="white"/>
<path d="M563.334 459.277L606.667 459.277L606.667 166.278L563.334 166.278L563.334 459.277Z" fill="white"/>
<path d="M476.667 459.277L520 459.277L520 166.278L476.667 166.278L476.667 459.277Z" fill="white"/>
<path d="M390.001 459.277L433.334 459.277L433.334 166.278L390.001 166.278L390.001 459.277Z" fill="white"/>
<path d="M303.334 459.277L346.667 459.277L346.667 166.277L303.334 166.277L303.334 459.277Z" fill="white"/>
<path d="M216.667 459.277L260 459.277L260 166.277L216.667 166.277L216.667 459.277Z" fill="white"/>
<path d="M130.001 459.277L173.334 459.277L173.334 166.277L130.001 166.277L130.001 459.277Z" fill="white"/>
<path d="M43.3336 459.277L86.667 459.277L86.667 166.277L43.3337 166.277L43.3336 459.277Z" fill="white"/>
</mask>
<g mask="url(#mask5_1195_5308)">
<path d="M1194.13 453.234L1145.87 465.321L-24.1306 172.321L24.1319 160.234L1194.13 453.234Z" fill="url(#paint5_radial_1195_5308)" fill-opacity="0.3"/>
</g>
<mask id="mask6_1195_5308" style="mask-type:luminance" maskUnits="userSpaceOnUse" x="-1214" y="97" width="2384" height="294">
<path d="M1126.67 390.056L1170 390.056L1170 97.0562L1126.67 97.0562L1126.67 390.056Z" fill="white"/>
<path d="M1040 390.056L1083.33 390.056L1083.33 97.0562L1040 97.0562L1040 390.056Z" fill="white"/>
<path d="M953.334 390.056L996.667 390.056L996.667 97.0562L953.334 97.0562L953.334 390.056Z" fill="white"/>
<path d="M866.667 390.056L910 390.056L910 97.0562L866.667 97.0562L866.667 390.056Z" fill="white"/>
<path d="M780 390.056L823.333 390.056L823.333 97.0562L780 97.0562L780 390.056Z" fill="white"/>
<path d="M693.334 390.056L736.667 390.056L736.667 97.0562L693.334 97.0562L693.334 390.056Z" fill="white"/>
<path d="M606.667 390.056L650 390.056L650 97.0562L606.667 97.0562L606.667 390.056Z" fill="white"/>
<path d="M520 390.056L563.333 390.056L563.333 97.0562L520 97.0562L520 390.056Z" fill="white"/>
<path d="M433.334 390.056L476.667 390.056L476.667 97.0562L433.334 97.0562L433.334 390.056Z" fill="white"/>
<path d="M346.667 390.056L390 390.056L390 97.0562L346.667 97.0562L346.667 390.056Z" fill="white"/>
<path d="M260 390.056L303.333 390.056L303.333 97.0562L260 97.0562L260 390.056Z" fill="white"/>
<path d="M173.334 390.056L216.667 390.056L216.667 97.0562L173.334 97.0562L173.334 390.056Z" fill="white"/>
<path d="M86.6667 390.056L130 390.056L130 97.0562L86.6667 97.0562L86.6667 390.056Z" fill="white"/>
<path d="M-0.000339508 390.056L43.333 390.056L43.333 97.0561L-0.000313893 97.0561L-0.000339508 390.056Z" fill="white"/>
</mask>
<g mask="url(#mask6_1195_5308)">
<path opacity="0.37" d="M1194.13 384.013L1145.87 396.099L-24.1316 103.099L24.1309 91.013L1194.13 384.013Z" fill="url(#paint6_radial_1195_5308)" fill-opacity="0.3"/>
</g>
<mask id="mask7_1195_5308" style="mask-type:luminance" maskUnits="userSpaceOnUse" x="-1170" y="122" width="2297" height="294">
<path d="M1083.33 415.327L1126.67 415.327L1126.67 122.327L1083.33 122.327L1083.33 415.327Z" fill="white"/>
<path d="M996.667 415.327L1040 415.327L1040 122.327L996.667 122.327L996.667 415.327Z" fill="white"/>
<path d="M910.001 415.327L953.334 415.327L953.334 122.327L910.001 122.327L910.001 415.327Z" fill="white"/>
<path d="M823.334 415.327L866.667 415.327L866.667 122.327L823.334 122.327L823.334 415.327Z" fill="white"/>
<path d="M736.667 415.327L780 415.327L780 122.327L736.667 122.327L736.667 415.327Z" fill="white"/>
<path d="M650.001 415.327L693.334 415.327L693.334 122.327L650.001 122.327L650.001 415.327Z" fill="white"/>
<path d="M563.334 415.327L606.667 415.327L606.667 122.327L563.334 122.327L563.334 415.327Z" fill="white"/>
<path d="M476.667 415.327L520 415.327L520 122.327L476.667 122.327L476.667 415.327Z" fill="white"/>
<path d="M390.001 415.327L433.334 415.327L433.334 122.327L390.001 122.327L390.001 415.327Z" fill="white"/>
<path d="M303.334 415.327L346.667 415.327L346.667 122.327L303.334 122.327L303.334 415.327Z" fill="white"/>
<path d="M216.667 415.327L260 415.327L260 122.327L216.667 122.327L216.667 415.327Z" fill="white"/>
<path d="M130.001 415.327L173.334 415.327L173.334 122.327L130.001 122.327L130.001 415.327Z" fill="white"/>
<path d="M43.3336 415.327L86.667 415.327L86.667 122.327L43.3337 122.327L43.3336 415.327Z" fill="white"/>
</mask>
<g mask="url(#mask7_1195_5308)">
<path d="M1194.13 409.284L1145.87 421.371L-24.1306 128.371L24.1319 116.284L1194.13 409.284Z" fill="url(#paint7_radial_1195_5308)" fill-opacity="0.3"/>
</g>
<mask id="mask8_1195_5308" style="mask-type:luminance" maskUnits="userSpaceOnUse" x="-1214" y="53" width="2384" height="294">
<path d="M1126.67 346.106L1170 346.106L1170 53.1063L1126.67 53.1063L1126.67 346.106Z" fill="white"/>
<path d="M1040 346.106L1083.33 346.106L1083.33 53.1063L1040 53.1063L1040 346.106Z" fill="white"/>
<path d="M953.334 346.106L996.667 346.106L996.667 53.1063L953.334 53.1063L953.334 346.106Z" fill="white"/>
<path d="M866.667 346.106L910 346.106L910 53.1063L866.667 53.1063L866.667 346.106Z" fill="white"/>
<path d="M780 346.106L823.333 346.106L823.333 53.1063L780 53.1063L780 346.106Z" fill="white"/>
<path d="M693.334 346.106L736.667 346.106L736.667 53.1063L693.334 53.1063L693.334 346.106Z" fill="white"/>
<path d="M606.667 346.106L650 346.106L650 53.1063L606.667 53.1063L606.667 346.106Z" fill="white"/>
<path d="M520 346.106L563.333 346.106L563.333 53.1063L520 53.1063L520 346.106Z" fill="white"/>
<path d="M433.334 346.106L476.667 346.106L476.667 53.1063L433.334 53.1063L433.334 346.106Z" fill="white"/>
<path d="M346.667 346.106L390 346.106L390 53.1063L346.667 53.1063L346.667 346.106Z" fill="white"/>
<path d="M260 346.106L303.333 346.106L303.333 53.1062L260 53.1062L260 346.106Z" fill="white"/>
<path d="M173.334 346.106L216.667 346.106L216.667 53.1062L173.334 53.1062L173.334 346.106Z" fill="white"/>
<path d="M86.6667 346.106L130 346.106L130 53.1062L86.6667 53.1062L86.6667 346.106Z" fill="white"/>
<path d="M-0.000339508 346.106L43.333 346.106L43.333 53.1062L-0.000313893 53.1062L-0.000339508 346.106Z" fill="white"/>
</mask>
<g mask="url(#mask8_1195_5308)">
<path opacity="0.37" d="M1194.13 340.063L1145.87 352.149L-24.1316 59.1493L24.1309 47.063L1194.13 340.063Z" fill="url(#paint8_radial_1195_5308)" fill-opacity="0.3"/>
</g>
<mask id="mask9_1195_5308" style="mask-type:luminance" maskUnits="userSpaceOnUse" x="-1170" y="78" width="2297" height="294">
<path d="M1083.33 371.377L1126.67 371.377L1126.67 78.3775L1083.33 78.3775L1083.33 371.377Z" fill="white"/>
<path d="M996.667 371.377L1040 371.377L1040 78.3775L996.667 78.3775L996.667 371.377Z" fill="white"/>
<path d="M910.001 371.377L953.334 371.377L953.334 78.3775L910.001 78.3775L910.001 371.377Z" fill="white"/>
<path d="M823.334 371.377L866.667 371.377L866.667 78.3775L823.334 78.3775L823.334 371.377Z" fill="white"/>
<path d="M736.667 371.377L780 371.377L780 78.3775L736.667 78.3775L736.667 371.377Z" fill="white"/>
<path d="M650.001 371.377L693.334 371.377L693.334 78.3775L650.001 78.3775L650.001 371.377Z" fill="white"/>
<path d="M563.334 371.377L606.667 371.377L606.667 78.3775L563.334 78.3775L563.334 371.377Z" fill="white"/>
<path d="M476.667 371.377L520 371.377L520 78.3775L476.667 78.3775L476.667 371.377Z" fill="white"/>
<path d="M390.001 371.377L433.334 371.377L433.334 78.3775L390.001 78.3775L390.001 371.377Z" fill="white"/>
<path d="M303.334 371.377L346.667 371.377L346.667 78.3774L303.334 78.3774L303.334 371.377Z" fill="white"/>
<path d="M216.667 371.377L260 371.377L260 78.3774L216.667 78.3774L216.667 371.377Z" fill="white"/>
<path d="M130.001 371.377L173.334 371.377L173.334 78.3774L130.001 78.3774L130.001 371.377Z" fill="white"/>
<path d="M43.3336 371.377L86.667 371.377L86.667 78.3774L43.3337 78.3774L43.3336 371.377Z" fill="white"/>
</mask>
<g mask="url(#mask9_1195_5308)">
<path d="M1194.13 365.334L1145.87 377.421L-24.1306 84.4205L24.1319 72.3343L1194.13 365.334Z" fill="url(#paint9_radial_1195_5308)" fill-opacity="0.3"/>
</g>
<mask id="mask10_1195_5308" style="mask-type:luminance" maskUnits="userSpaceOnUse" x="-1214" y="9" width="2384" height="294">
<path d="M1126.67 302.156L1170 302.156L1170 9.15634L1126.67 9.15634L1126.67 302.156Z" fill="white"/>
<path d="M1040 302.156L1083.33 302.156L1083.33 9.15634L1040 9.15634L1040 302.156Z" fill="white"/>
<path d="M953.334 302.156L996.667 302.156L996.667 9.15634L953.334 9.15634L953.334 302.156Z" fill="white"/>
<path d="M866.667 302.156L910 302.156L910 9.15634L866.667 9.15634L866.667 302.156Z" fill="white"/>
<path d="M780 302.156L823.333 302.156L823.333 9.15634L780 9.15634L780 302.156Z" fill="white"/>
<path d="M693.334 302.156L736.667 302.156L736.667 9.15634L693.334 9.15634L693.334 302.156Z" fill="white"/>
<path d="M606.667 302.156L650 302.156L650 9.15634L606.667 9.15634L606.667 302.156Z" fill="white"/>
<path d="M520 302.156L563.333 302.156L563.333 9.15634L520 9.15634L520 302.156Z" fill="white"/>
<path d="M433.334 302.156L476.667 302.156L476.667 9.15622L433.334 9.15622L433.334 302.156Z" fill="white"/>
<path d="M346.667 302.156L390 302.156L390 9.15622L346.667 9.15622L346.667 302.156Z" fill="white"/>
<path d="M260 302.156L303.333 302.156L303.333 9.15622L260 9.15622L260 302.156Z" fill="white"/>
<path d="M173.334 302.156L216.667 302.156L216.667 9.15622L173.334 9.15622L173.334 302.156Z" fill="white"/>
<path d="M86.6667 302.156L130 302.156L130 9.15622L86.6667 9.15622L86.6667 302.156Z" fill="white"/>
<path d="M-0.000339508 302.156L43.333 302.156L43.333 9.15622L-0.000313893 9.15622L-0.000339508 302.156Z" fill="white"/>
</mask>
<g mask="url(#mask10_1195_5308)">
<path opacity="0.37" d="M1194.13 296.113L1145.87 308.199L-24.1316 15.1993L24.1309 3.11309L1194.13 296.113Z" fill="url(#paint10_radial_1195_5308)" fill-opacity="0.3"/>
</g>
<mask id="mask11_1195_5308" style="mask-type:luminance" maskUnits="userSpaceOnUse" x="-1170" y="34" width="2297" height="294">
<path d="M1083.33 327.427L1126.67 327.427L1126.67 34.4276L1083.33 34.4276L1083.33 327.427Z" fill="white"/>
<path d="M996.667 327.427L1040 327.427L1040 34.4276L996.667 34.4276L996.667 327.427Z" fill="white"/>
<path d="M910.001 327.427L953.334 327.427L953.334 34.4276L910.001 34.4276L910.001 327.427Z" fill="white"/>
<path d="M823.334 327.427L866.667 327.427L866.667 34.4276L823.334 34.4276L823.334 327.427Z" fill="white"/>
<path d="M736.667 327.427L780 327.427L780 34.4276L736.667 34.4276L736.667 327.427Z" fill="white"/>
<path d="M650.001 327.427L693.334 327.427L693.334 34.4276L650.001 34.4276L650.001 327.427Z" fill="white"/>
<path d="M563.334 327.427L606.667 327.427L606.667 34.4276L563.334 34.4276L563.334 327.427Z" fill="white"/>
<path d="M476.667 327.427L520 327.427L520 34.4276L476.667 34.4276L476.667 327.427Z" fill="white"/>
<path d="M390.001 327.427L433.334 327.427L433.334 34.4276L390.001 34.4276L390.001 327.427Z" fill="white"/>
<path d="M303.334 327.427L346.667 327.427L346.667 34.4276L303.334 34.4276L303.334 327.427Z" fill="white"/>
<path d="M216.667 327.427L260 327.427L260 34.4275L216.667 34.4275L216.667 327.427Z" fill="white"/>
<path d="M130.001 327.427L173.334 327.427L173.334 34.4275L130.001 34.4275L130.001 327.427Z" fill="white"/>
<path d="M43.3336 327.427L86.667 327.427L86.667 34.4275L43.3337 34.4275L43.3336 327.427Z" fill="white"/>
</mask>
<g mask="url(#mask11_1195_5308)">
<path d="M1194.13 321.384L1145.87 333.471L-24.1306 40.4706L24.1319 28.3843L1194.13 321.384Z" fill="url(#paint11_radial_1195_5308)" fill-opacity="0.3"/>
</g>
<mask id="mask12_1195_5308" style="mask-type:luminance" maskUnits="userSpaceOnUse" x="-1214" y="-35" width="2384" height="294">
<path d="M1126.67 258.206L1170 258.206L1170 -34.7936L1126.67 -34.7936L1126.67 258.206Z" fill="white"/>
<path d="M1040 258.206L1083.33 258.206L1083.33 -34.7936L1040 -34.7936L1040 258.206Z" fill="white"/>
<path d="M953.334 258.206L996.667 258.206L996.667 -34.7936L953.334 -34.7936L953.334 258.206Z" fill="white"/>
<path d="M866.667 258.206L910 258.206L910 -34.7936L866.667 -34.7936L866.667 258.206Z" fill="white"/>
<path d="M780 258.206L823.333 258.206L823.333 -34.7936L780 -34.7936L780 258.206Z" fill="white"/>
<path d="M693.334 258.206L736.667 258.206L736.667 -34.7936L693.334 -34.7936L693.334 258.206Z" fill="white"/>
<path d="M606.667 258.206L650 258.206L650 -34.7936L606.667 -34.7936L606.667 258.206Z" fill="white"/>
<path d="M520 258.206L563.333 258.206L563.333 -34.7936L520 -34.7936L520 258.206Z" fill="white"/>
<path d="M433.334 258.206L476.667 258.206L476.667 -34.7936L433.334 -34.7936L433.334 258.206Z" fill="white"/>
<path d="M346.667 258.206L390 258.206L390 -34.7936L346.667 -34.7936L346.667 258.206Z" fill="white"/>
<path d="M260 258.206L303.333 258.206L303.333 -34.7937L260 -34.7937L260 258.206Z" fill="white"/>
<path d="M173.334 258.206L216.667 258.206L216.667 -34.7937L173.334 -34.7937L173.334 258.206Z" fill="white"/>
<path d="M86.6667 258.206L130 258.206L130 -34.7937L86.6667 -34.7937L86.6667 258.206Z" fill="white"/>
<path d="M-0.000339508 258.206L43.333 258.206L43.333 -34.7937L-0.000313893 -34.7937L-0.000339508 258.206Z" fill="white"/>
</mask>
<g mask="url(#mask12_1195_5308)">
<path opacity="0.37" d="M1194.13 252.163L1145.87 264.249L-24.1316 -28.7506L24.1309 -40.8369L1194.13 252.163Z" fill="url(#paint12_radial_1195_5308)" fill-opacity="0.3"/>
</g>
<mask id="mask13_1195_5308" style="mask-type:luminance" maskUnits="userSpaceOnUse" x="-1170" y="-10" width="2297" height="294">
<path d="M1083.33 283.477L1126.67 283.477L1126.67 -9.52249L1083.33 -9.5225L1083.33 283.477Z" fill="white"/>
<path d="M996.667 283.477L1040 283.477L1040 -9.52249L996.667 -9.5225L996.667 283.477Z" fill="white"/>
<path d="M910.001 283.477L953.334 283.477L953.334 -9.52249L910.001 -9.5225L910.001 283.477Z" fill="white"/>
<path d="M823.334 283.477L866.667 283.477L866.667 -9.52249L823.334 -9.5225L823.334 283.477Z" fill="white"/>
<path d="M736.667 283.477L780 283.477L780 -9.52249L736.667 -9.5225L736.667 283.477Z" fill="white"/>
<path d="M650.001 283.477L693.334 283.477L693.334 -9.52249L650.001 -9.5225L650.001 283.477Z" fill="white"/>
<path d="M563.334 283.477L606.667 283.477L606.667 -9.52249L563.334 -9.5225L563.334 283.477Z" fill="white"/>
<path d="M476.667 283.477L520 283.477L520 -9.52249L476.667 -9.5225L476.667 283.477Z" fill="white"/>
<path d="M390.001 283.477L433.334 283.477L433.334 -9.52261L390.001 -9.52262L390.001 283.477Z" fill="white"/>
<path d="M303.334 283.477L346.667 283.477L346.667 -9.52261L303.334 -9.52262L303.334 283.477Z" fill="white"/>
<path d="M216.667 283.477L260 283.477L260 -9.52261L216.667 -9.52262L216.667 283.477Z" fill="white"/>
<path d="M130.001 283.477L173.334 283.477L173.334 -9.52261L130.001 -9.52262L130.001 283.477Z" fill="white"/>
<path d="M43.3336 283.477L86.667 283.477L86.667 -9.52261L43.3337 -9.52262L43.3336 283.477Z" fill="white"/>
</mask>
<g mask="url(#mask13_1195_5308)">
<path d="M1194.13 277.434L1145.87 289.521L-24.1306 -3.47939L24.1319 -15.5656L1194.13 277.434Z" fill="url(#paint13_radial_1195_5308)" fill-opacity="0.3"/>
</g>
<mask id="mask14_1195_5308" style="mask-type:luminance" maskUnits="userSpaceOnUse" x="-1214" y="-79" width="2384" height="294">
<path d="M1126.67 214.256L1170 214.256L1170 -78.7436L1126.67 -78.7436L1126.67 214.256Z" fill="white"/>
<path d="M1040 214.256L1083.33 214.256L1083.33 -78.7437L1040 -78.7437L1040 214.256Z" fill="white"/>
<path d="M953.334 214.256L996.667 214.256L996.667 -78.7437L953.334 -78.7437L953.334 214.256Z" fill="white"/>
<path d="M866.667 214.256L910 214.256L910 -78.7437L866.667 -78.7437L866.667 214.256Z" fill="white"/>
<path d="M780 214.256L823.333 214.256L823.333 -78.7437L780 -78.7437L780 214.256Z" fill="white"/>
<path d="M693.334 214.256L736.667 214.256L736.667 -78.7437L693.334 -78.7437L693.334 214.256Z" fill="white"/>
<path d="M606.667 214.256L650 214.256L650 -78.7437L606.667 -78.7437L606.667 214.256Z" fill="white"/>
<path d="M520 214.256L563.333 214.256L563.333 -78.7437L520 -78.7437L520 214.256Z" fill="white"/>
<path d="M433.334 214.256L476.667 214.256L476.667 -78.7437L433.334 -78.7437L433.334 214.256Z" fill="white"/>
<path d="M346.667 214.256L390 214.256L390 -78.7437L346.667 -78.7437L346.667 214.256Z" fill="white"/>
<path d="M260 214.256L303.333 214.256L303.333 -78.7437L260 -78.7437L260 214.256Z" fill="white"/>
<path d="M173.334 214.256L216.667 214.256L216.667 -78.7437L173.334 -78.7437L173.334 214.256Z" fill="white"/>
<path d="M86.6667 214.256L130 214.256L130 -78.7437L86.6667 -78.7437L86.6667 214.256Z" fill="white"/>
<path d="M-0.000339508 214.256L43.333 214.256L43.333 -78.7437L-0.000313893 -78.7437L-0.000339508 214.256Z" fill="white"/>
</mask>
<g mask="url(#mask14_1195_5308)">
<path opacity="0.37" d="M1194.13 208.213L1145.87 220.299L-24.1316 -72.7006L24.1309 -84.7869L1194.13 208.213Z" fill="url(#paint14_radial_1195_5308)" fill-opacity="0.3"/>
</g>
<mask id="mask15_1195_5308" style="mask-type:luminance" maskUnits="userSpaceOnUse" x="-1170" y="-54" width="2297" height="294">
<path d="M1083.33 239.527L1126.67 239.527L1126.67 -53.4724L1083.33 -53.4724L1083.33 239.527Z" fill="white"/>
<path d="M996.667 239.527L1040 239.527L1040 -53.4724L996.667 -53.4724L996.667 239.527Z" fill="white"/>
<path d="M910.001 239.527L953.334 239.527L953.334 -53.4724L910.001 -53.4724L910.001 239.527Z" fill="white"/>
<path d="M823.334 239.527L866.667 239.527L866.667 -53.4724L823.334 -53.4724L823.334 239.527Z" fill="white"/>
<path d="M736.667 239.527L780 239.527L780 -53.4724L736.667 -53.4724L736.667 239.527Z" fill="white"/>
<path d="M650.001 239.527L693.334 239.527L693.334 -53.4724L650.001 -53.4724L650.001 239.527Z" fill="white"/>
<path d="M563.334 239.527L606.667 239.527L606.667 -53.4724L563.334 -53.4724L563.334 239.527Z" fill="white"/>
<path d="M476.667 239.527L520 239.527L520 -53.4724L476.667 -53.4724L476.667 239.527Z" fill="white"/>
<path d="M390.001 239.527L433.334 239.527L433.334 -53.4724L390.001 -53.4724L390.001 239.527Z" fill="white"/>
<path d="M303.334 239.527L346.667 239.527L346.667 -53.4724L303.334 -53.4724L303.334 239.527Z" fill="white"/>
<path d="M216.667 239.527L260 239.527L260 -53.4724L216.667 -53.4724L216.667 239.527Z" fill="white"/>
<path d="M130.001 239.527L173.334 239.527L173.334 -53.4724L130.001 -53.4724L130.001 239.527Z" fill="white"/>
<path d="M43.3336 239.527L86.667 239.527L86.667 -53.4724L43.3337 -53.4724L43.3336 239.527Z" fill="white"/>
</mask>
<g mask="url(#mask15_1195_5308)">
<path d="M1194.13 233.484L1145.87 245.571L-24.1306 -47.4293L24.1319 -59.5156L1194.13 233.484Z" fill="url(#paint15_radial_1195_5308)" fill-opacity="0.3"/>
</g>
<defs>
<radialGradient id="paint0_radial_1195_5308" cx="0" cy="0" r="1" gradientUnits="userSpaceOnUse" gradientTransform="translate(-59719 -14726.4) rotate(-90) scale(15254.3 60913.1)">
<stop offset="0.192708" stop-color="#00C1AE" stop-opacity="0.09"/>
<stop offset="0.71875" stop-color="#67E8F9" stop-opacity="0.08"/>
</radialGradient>
<radialGradient id="paint1_radial_1195_5308" cx="0" cy="0" r="1" gradientUnits="userSpaceOnUse" gradientTransform="translate(-59719 -14701.1) rotate(-90) scale(15254.3 60913.1)">
<stop offset="0.192708" stop-color="#00C1AE" stop-opacity="0.09"/>
<stop offset="0.71875" stop-color="#67E8F9" stop-opacity="0.08"/>
</radialGradient>
<radialGradient id="paint2_radial_1195_5308" cx="0" cy="0" r="1" gradientUnits="userSpaceOnUse" gradientTransform="translate(-59719 -14770.3) rotate(-90) scale(15254.3 60913.1)">
<stop offset="0.192708" stop-color="#00C1AE" stop-opacity="0.09"/>
<stop offset="0.71875" stop-color="#67E8F9" stop-opacity="0.08"/>
</radialGradient>
<radialGradient id="paint3_radial_1195_5308" cx="0" cy="0" r="1" gradientUnits="userSpaceOnUse" gradientTransform="translate(-59719 -14745) rotate(-90) scale(15254.3 60913.1)">
<stop offset="0.192708" stop-color="#00C1AE" stop-opacity="0.09"/>
<stop offset="0.71875" stop-color="#67E8F9" stop-opacity="0.08"/>
</radialGradient>
<radialGradient id="paint4_radial_1195_5308" cx="0" cy="0" r="1" gradientUnits="userSpaceOnUse" gradientTransform="translate(-59719 -14814.3) rotate(-90) scale(15254.3 60913.1)">
<stop offset="0.192708" stop-color="#00C1AE" stop-opacity="0.09"/>
<stop offset="0.71875" stop-color="#67E8F9" stop-opacity="0.08"/>
</radialGradient>
<radialGradient id="paint5_radial_1195_5308" cx="0" cy="0" r="1" gradientUnits="userSpaceOnUse" gradientTransform="translate(-59719 -14789) rotate(-90) scale(15254.3 60913.1)">
<stop offset="0.192708" stop-color="#00C1AE" stop-opacity="0.09"/>
<stop offset="0.71875" stop-color="#67E8F9" stop-opacity="0.08"/>
</radialGradient>
<radialGradient id="paint6_radial_1195_5308" cx="0" cy="0" r="1" gradientUnits="userSpaceOnUse" gradientTransform="translate(-59719 -14858.2) rotate(-90) scale(15254.3 60913.1)">
<stop offset="0.192708" stop-color="#00C1AE" stop-opacity="0.09"/>
<stop offset="0.71875" stop-color="#67E8F9" stop-opacity="0.08"/>
</radialGradient>
<radialGradient id="paint7_radial_1195_5308" cx="0" cy="0" r="1" gradientUnits="userSpaceOnUse" gradientTransform="translate(-59719 -14832.9) rotate(-90) scale(15254.3 60913.1)">
<stop offset="0.192708" stop-color="#00C1AE" stop-opacity="0.09"/>
<stop offset="0.71875" stop-color="#67E8F9" stop-opacity="0.08"/>
</radialGradient>
<radialGradient id="paint8_radial_1195_5308" cx="0" cy="0" r="1" gradientUnits="userSpaceOnUse" gradientTransform="translate(-59719 -14902.2) rotate(-90) scale(15254.3 60913.1)">
<stop offset="0.192708" stop-color="#00C1AE" stop-opacity="0.09"/>
<stop offset="0.71875" stop-color="#67E8F9" stop-opacity="0.08"/>
</radialGradient>
<radialGradient id="paint9_radial_1195_5308" cx="0" cy="0" r="1" gradientUnits="userSpaceOnUse" gradientTransform="translate(-59719 -14876.9) rotate(-90) scale(15254.3 60913.1)">
<stop offset="0.192708" stop-color="#00C1AE" stop-opacity="0.09"/>
<stop offset="0.71875" stop-color="#67E8F9" stop-opacity="0.08"/>
</radialGradient>
<radialGradient id="paint10_radial_1195_5308" cx="0" cy="0" r="1" gradientUnits="userSpaceOnUse" gradientTransform="translate(-59719 -14946.1) rotate(-90) scale(15254.3 60913.1)">
<stop offset="0.192708" stop-color="#00C1AE" stop-opacity="0.09"/>
<stop offset="0.71875" stop-color="#67E8F9" stop-opacity="0.08"/>
</radialGradient>
<radialGradient id="paint11_radial_1195_5308" cx="0" cy="0" r="1" gradientUnits="userSpaceOnUse" gradientTransform="translate(-59719 -14920.8) rotate(-90) scale(15254.3 60913.1)">
<stop offset="0.192708" stop-color="#00C1AE" stop-opacity="0.09"/>
<stop offset="0.71875" stop-color="#67E8F9" stop-opacity="0.08"/>
</radialGradient>
<radialGradient id="paint12_radial_1195_5308" cx="0" cy="0" r="1" gradientUnits="userSpaceOnUse" gradientTransform="translate(-59719 -14990.1) rotate(-90) scale(15254.3 60913.1)">
<stop offset="0.192708" stop-color="#00C1AE" stop-opacity="0.09"/>
<stop offset="0.71875" stop-color="#67E8F9" stop-opacity="0.08"/>
</radialGradient>
<radialGradient id="paint13_radial_1195_5308" cx="0" cy="0" r="1" gradientUnits="userSpaceOnUse" gradientTransform="translate(-59719 -14964.8) rotate(-90) scale(15254.3 60913.1)">
<stop offset="0.192708" stop-color="#00C1AE" stop-opacity="0.09"/>
<stop offset="0.71875" stop-color="#67E8F9" stop-opacity="0.08"/>
</radialGradient>
<radialGradient id="paint14_radial_1195_5308" cx="0" cy="0" r="1" gradientUnits="userSpaceOnUse" gradientTransform="translate(-59719 -15034) rotate(-90) scale(15254.3 60913.1)">
<stop offset="0.192708" stop-color="#00C1AE" stop-opacity="0.09"/>
<stop offset="0.71875" stop-color="#67E8F9" stop-opacity="0.08"/>
</radialGradient>
<radialGradient id="paint15_radial_1195_5308" cx="0" cy="0" r="1" gradientUnits="userSpaceOnUse" gradientTransform="translate(-59719 -15008.7) rotate(-90) scale(15254.3 60913.1)">
<stop offset="0.192708" stop-color="#00C1AE" stop-opacity="0.09"/>
<stop offset="0.71875" stop-color="#67E8F9" stop-opacity="0.08"/>
</radialGradient>
</defs>
</svg>
