<svg width="177" height="40" viewBox="0 0 177 40" fill="none" xmlns="http://www.w3.org/2000/svg">
<g clip-path="url(#clip0_180_5106)">
<path d="M69.9556 21.8762L69.9169 22.2491C69.4618 27.0692 65.9514 30.1801 60.9715 30.1801C58.0905 30.1801 55.6188 29.2311 53.8248 27.4372C52.0091 25.619 51.0068 23.0359 51.0068 20.1525C51.0068 17.1239 51.9825 14.548 53.8224 12.7105C55.6115 10.9166 58.0857 9.97241 60.9715 9.97241C65.7141 9.97241 69.2439 12.788 69.7499 16.9811L69.7959 17.3587L64.9515 17.3636L64.908 17.0731C64.6586 15.4075 62.9325 14.1026 60.9715 14.1026C59.5843 14.1026 58.4537 14.5262 57.6209 15.3615C56.575 16.4121 56.0013 18.1141 56.0013 20.1549C56.0013 22.1038 56.5653 23.7476 57.6015 24.7838C58.444 25.6263 59.577 26.0524 60.9739 26.0524C63.2496 26.0524 64.7603 24.6192 65.0944 22.1546L65.1162 21.8738L69.9556 21.8762Z" fill="#475569"/>
<path d="M78.8069 15.1387C81.1237 15.1387 83.075 15.865 84.4574 17.245C85.7913 18.5765 86.4958 20.4334 86.4958 22.605C86.4958 24.7669 85.7913 26.6068 84.4622 27.9383C83.0823 29.3183 81.1262 30.047 78.8069 30.047C76.5021 30.047 74.5581 29.3183 73.183 27.9432C71.8491 26.6116 71.1494 24.7693 71.1494 22.605C71.1494 20.414 71.8491 18.5499 73.1758 17.228C74.5387 15.8578 76.49 15.1387 78.8069 15.1387ZM76.7442 25.8103C77.2478 26.3163 77.9402 26.5705 78.8069 26.5705C79.676 26.5705 80.3805 26.3066 80.8938 25.7958C81.7411 24.9484 81.9178 23.5927 81.9178 22.605C81.9178 21.6027 81.7411 20.2276 80.8938 19.3802C80.3878 18.8743 79.6857 18.6152 78.8069 18.6152C77.9426 18.6152 77.2502 18.8718 76.7467 19.373C75.8969 20.2203 75.7226 21.5978 75.7226 22.605C75.7226 23.6024 75.8969 24.9654 76.7442 25.8103Z" fill="#475569"/>
<path d="M101.896 15.1387C104.213 15.1387 106.166 15.865 107.546 17.245C108.878 18.5765 109.582 20.4334 109.582 22.605C109.582 24.7669 108.878 26.6068 107.551 27.9383C106.171 29.3183 104.217 30.047 101.896 30.047C99.591 30.047 97.6445 29.3183 96.2694 27.9432C94.9403 26.6116 94.2334 24.7693 94.2334 22.605C94.2334 20.414 94.9379 18.5499 96.2622 17.228C97.63 15.8578 99.5789 15.1387 101.896 15.1387ZM99.8355 25.8103C100.339 26.3163 101.034 26.5705 101.898 26.5705C102.767 26.5705 103.467 26.3066 103.987 25.7958C104.832 24.9484 105.009 23.5927 105.009 22.605C105.009 21.6027 104.832 20.2276 103.987 19.3802C103.474 18.8743 102.775 18.6152 101.898 18.6152C101.036 18.6152 100.339 18.8718 99.8355 19.373C98.993 20.2203 98.8138 21.5978 98.8138 22.605C98.8138 23.6024 98.9857 24.9654 99.8355 25.8103Z" fill="#475569"/>
<path d="M92.6523 10.384H88.0791V29.7032H92.6523V10.384Z" fill="#475569"/>
<path d="M132.378 10.384H127.805V29.7032H132.378V10.384Z" fill="#475569"/>
<path d="M171.466 18.6564H174.318V15.4898L171.466 15.4922V11.4419H166.896V15.4922L164.538 15.4898L164.535 18.6564H166.896V26.2751C166.896 27.3089 167.186 28.1271 167.77 28.7033C168.777 29.7129 170.496 29.8315 171.701 29.8315C172.699 29.8315 173.459 29.7831 174.03 29.6935L174.318 29.6499V26.0475L173.912 26.1226C173.558 26.188 173.202 26.2218 172.769 26.2218C172.173 26.2218 171.837 26.1492 171.684 25.9943C171.534 25.8466 171.466 25.5391 171.466 24.9968V18.6564Z" fill="#475569"/>
<path d="M115.744 34.4216H111.163L111.168 34.0827V15.4898L115.078 15.4922L115.545 16.5671L115.569 16.63L115.62 16.5816C116.579 15.6326 117.918 15.1266 119.486 15.1266C121.406 15.1266 122.98 15.7319 124.166 16.9133C125.527 18.2714 126.267 20.3341 126.267 22.726C126.267 24.9291 125.512 26.953 124.185 28.2748C123.033 29.4272 121.484 30.0348 119.707 30.0348C118.201 30.0348 116.823 29.5216 115.823 28.592L115.746 28.5193L115.744 34.4216ZM121.692 22.6219C121.692 21.2395 121.297 20.0484 120.612 19.3633C120.106 18.8597 119.445 18.6031 118.637 18.6031C117.811 18.6031 117.143 18.8549 116.651 19.3488C115.976 20.0194 115.61 21.1814 115.61 22.6219C115.61 24.0115 115.971 25.1397 116.639 25.8054C117.143 26.3042 117.823 26.5608 118.668 26.5608C119.506 26.5608 120.181 26.3066 120.677 25.8079C121.52 24.9702 121.692 23.6121 121.692 22.6219Z" fill="#475569"/>
<path d="M149.103 29.6741H145.22L144.7 28.454L144.707 28.3377L144.625 28.4201C143.632 29.449 142.15 30.0373 140.567 30.0373C138.788 30.0373 137.238 29.4272 136.088 28.2772C134.762 26.9554 134.004 24.9315 134.004 22.7284C134.004 20.3365 134.75 18.2738 136.105 16.9157C137.292 15.7318 138.868 15.129 140.79 15.129C142.354 15.129 143.69 15.6326 144.654 16.584L144.7 16.6324L145.191 15.4946L149.106 15.4922L149.103 29.6741ZM141.606 26.5632C142.453 26.5632 143.131 26.3066 143.632 25.8079C144.3 25.1421 144.663 24.0139 144.663 22.6243C144.663 21.1838 144.298 20.0218 143.622 19.3512C143.131 18.8573 142.463 18.6055 141.635 18.6055C140.829 18.6055 140.165 18.8621 139.662 19.3657C138.974 20.0508 138.58 21.2395 138.58 22.6243C138.58 23.6145 138.756 24.975 139.596 25.8103C140.093 26.3066 140.773 26.5632 141.606 26.5632Z" fill="#475569"/>
<path d="M155.084 25.3624C155.403 26.7666 157.151 26.8755 157.679 26.8755C157.895 26.8755 159.003 26.8464 159.565 26.2848C159.778 26.0717 159.887 25.8079 159.887 25.4956C159.887 24.6506 158.323 24.2681 155.747 23.7404C154.198 23.416 150.98 22.7453 150.98 19.8039C150.98 18.5619 151.368 17.5427 152.138 16.7777C153.229 15.6834 155.028 15.129 157.488 15.129C161.466 15.129 163.736 16.6809 164.063 19.6175L159.672 19.5884C159.575 19.0195 159.216 18.2932 157.381 18.2932C156.372 18.2932 155.934 18.5135 155.75 18.7024C155.619 18.8331 155.556 18.9904 155.556 19.2035C155.556 20.0387 156.982 20.3244 158.626 20.6561C158.977 20.7263 159.338 20.7989 159.701 20.8812C161.248 21.2177 164.465 21.9198 164.465 24.9993C164.465 26.3235 164.041 27.4178 163.204 28.2554C161.729 29.7274 159.371 30.0397 157.655 30.0397C155.587 30.0397 153.922 29.6233 152.714 28.7953C151.53 27.9843 150.842 26.8198 150.683 25.3406L155.084 25.3624Z" fill="#475569"/>
<path d="M20.6451 6.66296C22.3374 6.66296 24.4678 5.33628 27.4625 5.33628C30.2272 5.33628 32.0551 6.4136 32.9896 6.54191C33.5924 6.61939 34.5704 6.59518 35.9213 6.57339C35.2217 5.84952 34.4688 5.1765 33.6577 4.57126H10.4771C9.63462 5.20797 8.84781 5.91489 8.11426 6.67749L20.6451 6.66296Z" fill="#475569"/>
<path d="M40.984 16.1918L36.4496 16.2645C35.5102 16.2645 33.5371 16.9835 28.5306 16.9835L26.9328 16.9738C22.3717 16.9738 19.5344 16.3008 17.9293 16.1628H3.1566C3.01377 16.86 2.91451 17.5742 2.85156 18.3005H18.3868C19.6893 18.3005 23.8025 17.4991 26.9352 17.4991L28.4895 17.4604C31.6173 17.4604 34.2634 18.2303 35.6845 18.2303L41.2866 18.2642C41.2213 17.5621 41.122 16.8697 40.984 16.1918Z" fill="#475569"/>
<path d="M16.1304 14.4391C16.8978 14.4391 22.2554 13.7079 26.1459 13.7079L29.2277 13.6983C33.1352 13.6983 35.8079 14.3713 37.3621 14.3713L40.5336 14.3737C40.3205 13.6837 40.0688 13.0107 39.7879 12.3522L37.8972 12.3667C37.0256 12.558 33.3869 13.2964 29.2519 13.1705L26.1192 13.2165C22.9091 13.2649 18.515 12.696 16.5831 12.3546H4.35002C4.05709 13.0325 3.80773 13.7297 3.58984 14.4439L16.1304 14.4391Z" fill="#475569"/>
<path d="M17.5447 10.5195C18.6607 10.5195 22.3938 9.68188 26.9307 9.68188L28.4825 9.69156C32.3875 9.69156 34.2589 10.1249 35.9003 10.2581L38.7716 10.3501C38.3891 9.6843 37.9678 9.04275 37.5127 8.42783L34.3049 8.6215C33.4116 8.70866 31.637 9.17106 28.5043 9.17106L26.9307 9.19527C23.4106 9.19527 21.2584 8.6796 19.6848 8.51014H6.56322C6.08629 9.15169 5.6602 9.82229 5.26074 10.5195H17.5447Z" fill="#475569"/>
<path d="M13.2812 2.82332H30.855C28.221 1.47001 25.2408 0.704987 22.0693 0.704987C18.9027 0.704987 15.9201 1.47001 13.2812 2.82332Z" fill="#475569"/>
<path d="M33.714 19.9976C31.1236 19.9976 29.2716 20.6367 27.7004 20.6367C26.134 20.6367 23.9068 19.9976 22.6575 19.9976H2.75488C2.75488 30.657 11.3904 39.295 22.0523 39.295C32.7045 39.295 41.3449 30.657 41.3449 19.9976H33.714Z" fill="#475569"/>
</g>
<defs>
<clipPath id="clip0_180_5106">
<rect width="176" height="38.59" fill="white" transform="translate(0.536133 0.704987)"/>
</clipPath>
</defs>
</svg>
