<svg width="96" height="16" viewBox="0 0 96 16" fill="none" xmlns="http://www.w3.org/2000/svg">
<path d="M94.378 14.1233L89.6988 7.68617L93.8249 1.95911L94.4932 1.03113H93.3495H91.3615H91.0617L90.8865 1.27488L87.9775 5.31898L85.0369 1.27272L84.8622 1.03113H84.5633H82.5787H81.4316L82.1055 1.9604L86.2643 7.70041L81.643 14.1255L80.9756 15.053H82.1175H84.0909H84.392L84.5667 14.8097L87.9809 10.0693L91.4185 14.811L91.5932 15.053H91.8913H93.9043H95.054L94.378 14.1233Z" fill="#475569"/>
<path d="M78.8738 1.03106H77.2435H76.658V1.61649V2.42928C76.2271 2.03152 75.762 1.70062 75.2659 1.44048C74.331 0.949524 73.2762 0.700165 72.129 0.700165C70.1484 0.700165 68.4314 1.42236 67.0236 2.84647C65.6181 4.26971 64.9062 6.00616 64.9062 8.00665C64.9062 10.0451 65.6116 11.8018 67.0038 13.2285C68.3994 14.6578 70.1078 15.383 72.0824 15.383C73.1912 15.383 74.2296 15.1483 75.1688 14.6854C75.6921 14.4274 76.1904 14.0965 76.6572 13.6957V14.4675V15.053H77.2426H78.8729H79.4579V14.4675V1.61649V1.03106H78.8738ZM72.2533 12.6888C71.4659 12.6888 70.7183 12.4839 70.0319 12.0801C69.3434 11.6746 68.786 11.0995 68.3757 10.3687C67.9628 9.63525 67.754 8.85826 67.754 8.05928C67.754 7.25425 67.9611 6.47727 68.3701 5.75077C68.7817 5.01908 69.3179 4.4673 70.0116 4.06436C70.6967 3.66788 71.4556 3.46598 72.2658 3.46598C73.5445 3.46598 74.5911 3.89869 75.4643 4.7887C76.3388 5.68088 76.7646 6.76632 76.7646 8.10544C76.7646 8.97475 76.57 9.76467 76.1848 10.4515C75.7982 11.1405 75.2594 11.6733 74.5381 12.0809C73.821 12.4839 73.0523 12.6888 72.2533 12.6888Z" fill="#475569"/>
<path d="M62.8472 3.61516C62.4732 2.70401 61.8895 1.98268 61.1138 1.47058C60.342 0.959786 59.4433 0.700073 58.4416 0.700073C57.3833 0.700073 56.382 0.995162 55.4644 1.57671C54.8483 1.96801 54.2995 2.48441 53.8224 3.11817C53.6442 2.77648 53.4484 2.48528 53.2335 2.24066C52.8232 1.77128 52.2917 1.3925 51.6554 1.11553C51.0264 0.840284 50.3517 0.700073 49.6489 0.700073C48.623 0.700073 47.6337 0.982651 46.7101 1.5409C46.4098 1.72771 46.1143 1.96024 45.8244 2.23851V1.6164V1.03097H45.2389H43.5845H42.999V1.6164V14.4675V15.0529H43.5845H45.2389H45.8244V14.4675V9.02168C45.8244 7.5005 45.9702 6.37019 46.2588 5.66396C46.5371 4.98534 46.9512 4.46203 47.5259 4.06469C48.0975 3.66908 48.6894 3.47667 49.3365 3.47667C49.8797 3.47667 50.3309 3.60696 50.7158 3.87444C51.095 4.1389 51.3538 4.48144 51.5057 4.91976C51.623 5.25713 51.7633 6.04533 51.7633 7.88748V14.467V15.0525H52.3482H54.0019H54.5873V14.467V9.43497C54.5873 7.6735 54.7279 6.41764 55.0071 5.70322C55.2728 5.01769 55.6814 4.48619 56.2547 4.07721C56.822 3.6734 57.4299 3.47667 58.1107 3.47667C58.6495 3.47667 59.1129 3.60308 59.4878 3.85201C59.8618 4.10136 60.1181 4.41759 60.2712 4.81924C60.3877 5.12512 60.5262 5.83178 60.5262 7.45089V14.4675V15.0529H61.1112H62.7997H63.3847V14.4675V7.45089C63.3847 5.75153 63.2092 4.49697 62.8472 3.61516Z" fill="#475569"/>
<path d="M28.1162 6.76654C26.9286 6.15479 26.4549 5.75142 26.2668 5.52061C26.0131 5.21775 25.8919 4.91964 25.8919 4.60557C25.8919 4.25828 26.0338 3.95802 26.3254 3.68709C26.6274 3.40882 26.9816 3.27379 27.4066 3.27379C28.1292 3.27379 28.8993 3.66552 29.6948 4.43646L30.0106 4.74276L30.3165 4.42654L31.3786 3.32772L31.6841 3.01149L31.3678 2.70648C30.0895 1.47349 28.7845 0.847931 27.4894 0.847931C26.3582 0.847931 25.4061 1.2155 24.6589 1.94028C23.9069 2.66851 23.5255 3.59347 23.5255 4.68884C23.5255 5.52622 23.7645 6.28379 24.2357 6.9404C24.6986 7.58537 25.5234 8.2092 26.7573 8.84683C28.0338 9.49698 28.5222 9.89302 28.7073 10.1113C28.9472 10.3986 29.0649 10.7196 29.0649 11.0906C29.0649 11.5402 28.8833 11.925 28.5097 12.2671C28.1231 12.6179 27.6658 12.7896 27.1123 12.7896C26.3017 12.7896 25.5079 12.359 24.7546 11.5082L24.4246 11.1368L24.0963 11.5091L23.0562 12.6903L22.8154 12.9638L23.0398 13.2507C23.523 13.8703 24.139 14.3608 24.8711 14.7107C25.6007 15.0605 26.3789 15.2387 27.1827 15.2387C28.4096 15.2387 29.4485 14.8258 30.2712 14.0126C31.096 13.1994 31.5145 12.1916 31.5145 11.0195C31.5145 10.1838 31.2677 9.41846 30.7802 8.74329C30.2884 8.08495 29.4183 7.44128 28.1162 6.76654Z" fill="#475569"/>
<path d="M38.1742 6.76648C36.9861 6.15517 36.5124 5.75179 36.3234 5.52055C36.071 5.21856 35.9494 4.92045 35.9494 4.60552C35.9494 4.25823 36.0913 3.9571 36.3821 3.6866C36.6836 3.40877 37.0378 3.2733 37.4632 3.2733C38.1863 3.2733 38.9559 3.6646 39.7506 4.43597L40.0659 4.74271L40.3714 4.42648L41.4348 3.32766L41.7403 3.01143L41.424 2.70599C40.1466 1.473 38.8416 0.847443 37.5456 0.847443C36.4144 0.847443 35.4619 1.21501 34.7147 1.93979C33.9627 2.66845 33.5813 3.59341 33.5813 4.68835C33.5813 5.52745 33.8203 6.28459 34.2919 6.94034C34.7535 7.58402 35.5783 8.20785 36.8131 8.84635C38.0913 9.49692 38.5793 9.89339 38.7639 10.1108C39.0034 10.3977 39.1207 10.7191 39.1207 11.0901C39.1207 11.5401 38.9391 11.9254 38.5655 12.2662C38.1794 12.6174 37.7225 12.7891 37.1681 12.7891C36.3463 12.7891 35.5749 12.3693 34.8096 11.5078L34.4795 11.1367L34.1517 11.5091L33.1124 12.6903L32.8721 12.9634L33.0955 13.2498C33.5783 13.8693 34.1939 14.3603 34.9265 14.7102C35.6564 15.06 36.4347 15.2382 37.2384 15.2382C38.4641 15.2382 39.5034 14.8258 40.3278 14.0126C41.1518 13.1989 41.5694 12.1911 41.5694 11.019C41.5694 10.1807 41.3222 9.41495 40.8347 8.74237C40.3464 8.08576 39.4766 7.44165 38.1742 6.76648Z" fill="#475569"/>
<path d="M20.525 3.14132C19.1419 1.61842 17.3765 0.847473 15.2777 0.847473C13.1694 0.847473 11.3997 1.62273 10.0183 3.15297C8.7659 4.53695 8.13086 6.19359 8.13086 8.07716C8.13086 9.97884 8.80171 11.6635 10.124 13.0833C11.4541 14.5126 13.1884 15.237 15.2781 15.237C17.3597 15.237 19.0901 14.5122 20.4211 13.0833C21.7433 11.664 22.4138 9.97971 22.4138 8.07716C22.4133 6.18583 21.7779 4.52487 20.525 3.14132Z" fill="#475569"/>
<path d="M10.6162 6.67085H13.873V3.39682H16.6202V6.67085H19.8951V9.41854H16.6202V12.6762H13.873V9.41854H10.6162V6.67085Z" fill="white"/>
<path d="M8.57289 1.00741C8.30585 0.906886 7.46286 0.71016 7.22817 0.673058C6.98269 0.635956 6.66301 0.616974 6.27862 0.616974C5.49948 0.616974 4.75486 0.861587 4.06588 1.34391C3.58658 1.67783 3.18407 2.08422 2.86266 2.55662V0.940105H0.0537109V15.1152H3.02488V8.64176C2.98475 6.80134 3.23023 5.53081 3.79582 4.64209C4.32948 3.80342 4.87393 3.2443 5.79284 3.2443C5.97533 3.2443 6.17379 3.26674 6.38173 3.3116C6.60175 3.35863 6.67121 3.38624 6.80969 3.43974L7.24284 3.64078L8.82311 1.10189L8.57289 1.00741Z" fill="#475569"/>
</svg>
