<svg width="102" height="56" viewBox="0 0 102 56" fill="none" xmlns="http://www.w3.org/2000/svg">
<path d="M86.5884 28.9071C87.6485 28.8616 88.6366 28.6534 89.5528 28.2824C90.469 27.9114 91.3133 27.4193 92.0856 26.806C92.8579 26.1928 93.5621 25.4886 94.1982 24.6936C94.8342 23.8986 95.4021 23.0544 95.9018 22.161C96.6287 20.8739 97.3026 19.7117 97.9235 18.6744C98.5444 17.6372 99.0593 16.8535 99.4682 16.3236C99.8014 15.9601 100.123 15.5323 100.434 15.0402C100.744 14.5481 100.937 14.0824 101.013 13.6433C101.073 13.3556 101.066 13.1815 100.99 13.1209C100.914 13.0603 100.793 13.03 100.627 13.03C99.9452 13.2269 99.2373 13.2572 98.5028 13.1209C97.7683 12.9846 97.0452 12.7953 96.3334 12.553C95.6823 12.3108 95.0614 12.2653 94.4708 12.4168C93.8802 12.5682 93.335 12.8332 92.8352 13.2117C92.3355 13.5903 91.8736 14.0484 91.4496 14.5859C91.0256 15.1235 90.6545 15.6573 90.3365 16.1873C90.0185 16.7173 89.7459 17.2056 89.5187 17.6523C89.2916 18.099 89.125 18.4132 89.019 18.5949C88.9736 18.6858 88.9273 18.7783 88.8802 18.8726L88.6625 19.3079L88.5874 19.4581C88.436 19.7609 88.2883 20.0524 88.1444 20.3326C88.0006 20.6127 87.8605 20.8663 87.7242 21.0935C87.5879 21.3206 87.4743 21.4872 87.3835 21.5932C86.0508 21.5932 84.9605 21.1086 84.1124 20.1395C83.2492 19.1552 82.8176 17.8 82.8176 16.0737C82.3785 16.1494 82.0112 16.3576 81.7159 16.6983C81.4206 17.039 81.1632 17.4592 80.9436 17.959C80.724 18.4587 80.5347 19.0189 80.3757 19.6398C80.2167 20.2606 80.0539 20.889 79.8873 21.525C79.9024 23.4784 80.3719 25.1214 81.2957 26.454C82.4466 28.0439 84.2109 28.8616 86.5884 28.9071ZM88.6555 21.5932C88.9736 20.9572 89.284 20.3704 89.5869 19.8329C89.8898 19.2953 90.1926 18.7312 90.4955 18.1407C90.753 17.6561 91.0331 17.2132 91.336 16.8119C91.6389 16.4106 91.9758 16.0851 92.3468 15.8352C92.7179 15.5853 93.1305 15.4226 93.5848 15.3469C94.0392 15.2711 94.5616 15.3166 95.1522 15.4831C95.546 15.6043 95.9473 15.733 96.3562 15.8693C96.765 16.0056 97.1436 16.1116 97.4919 16.1873C96.8408 17.217 96.1139 18.1066 95.3112 18.8562C94.5086 19.6057 93.7439 20.1622 93.017 20.5256C92.2749 20.8739 91.5215 21.1238 90.7568 21.2752C89.992 21.4266 89.2916 21.5326 88.6555 21.5932ZM78.3881 29.3841C78.6758 29.4446 79.0014 29.2856 79.3648 28.9071C79.8343 28.4982 80.2508 28.0212 80.6142 27.4761C80.9777 26.931 81.2465 26.3593 81.4206 25.7612C81.5948 25.1631 81.7803 24.122 81.9771 22.638L82.704 17.5274L83.0448 14.461L84.067 7.14712C84.1579 6.82913 84.1124 6.67013 83.9307 6.67013C83.7187 6.67013 83.5597 6.7837 83.4537 7.01084C83.0902 7.78311 82.6435 8.78253 82.1134 10.0091C81.326 11.917 80.8716 13.0527 80.7505 13.4162C80.6142 13.9764 80.5006 14.7109 80.4098 15.6194C80.2735 16.8914 80.0463 19.5489 79.7283 23.592C79.6374 24.5914 79.4898 25.394 79.2853 25.9997C79.0809 26.6054 78.5016 27.5745 77.5476 28.9071C77.8202 29.1645 78.1003 29.3235 78.3881 29.3841ZM75.7985 39.628C77.0706 39.628 78.2442 39.098 79.3194 38.0381C80.334 37.0084 81.1594 35.5395 81.7954 33.6316C82.1589 32.5413 82.3406 31.8296 82.3406 31.4965C82.3406 31.0119 82.1134 30.7469 81.6591 30.7015C81.3714 30.7015 80.9095 30.6939 80.2735 30.6788C79.6374 30.6788 79.1831 30.55 78.9105 30.2926C78.6077 30.0201 78.7515 29.5582 79.3421 28.9071C79.2664 28.8162 79.149 28.7405 78.99 28.6799C78.831 28.6194 78.6569 28.5891 78.4676 28.5891C78.2783 28.5891 78.0965 28.6156 77.9224 28.6686C77.7482 28.7216 77.6157 28.8011 77.5249 28.9071C77.0251 29.9065 76.5481 30.7923 76.0938 31.5646C75.3366 31.3375 74.9126 29.6188 74.8217 26.4085C74.5037 26.3631 74.1819 26.5259 73.8563 26.8969C73.5307 27.2679 73.2316 27.7487 72.959 28.3392C72.6864 28.9298 72.4555 29.5771 72.2662 30.2813C72.0769 30.9854 71.952 31.6403 71.8914 32.246C71.9368 34.7143 72.3078 36.5617 73.0045 37.7882C73.6859 39.0148 74.6173 39.628 75.7985 39.628ZM71.8914 32.246C72.6031 32.246 73.2392 31.716 73.7995 30.656C74.3598 29.5961 74.7006 28.3089 74.8217 26.7947C74.8217 26.2647 74.8596 25.3788 74.9353 24.1371C74.9353 23.9403 74.9921 23.2589 75.1057 22.0929C75.2192 20.9269 75.435 18.9924 75.7531 16.2895C76.0711 13.5865 76.4194 10.9782 76.798 8.46453C76.7374 8.0254 76.6011 7.9724 76.3891 8.30553C76.0711 9.04752 75.7644 9.79708 75.4691 10.5542C75.1738 11.3113 74.8974 12.0609 74.64 12.8029C74.4128 13.6963 74.1781 14.8699 73.9358 16.3236C73.6935 17.7772 73.4777 19.1514 73.2884 20.4461C73.0991 21.7408 72.8189 23.8873 72.4479 26.8855C72.0769 29.8838 71.8914 31.6706 71.8914 32.246ZM49.8744 30.8377C50.6619 30.8377 51.8734 30.3986 53.5089 29.5203C55.5836 28.3392 57.2608 27.1959 58.5405 26.0905C59.8201 24.9851 61.1187 23.6071 62.4362 21.9566C63.4205 20.5029 64.0566 19.1931 64.3443 18.0271C64.4806 17.4365 64.5109 16.8763 64.4352 16.3463C64.3595 15.8163 64.102 15.309 63.6628 14.8244C63.0117 14.1279 62.209 13.7796 61.255 13.7796C60.7098 13.7796 60.0965 13.9916 59.415 14.4156C58.6427 14.9607 57.9461 15.5437 57.3252 16.1646L55.5988 17.8908L56.5074 14.8244C56.78 13.8099 57.3933 9.60023 58.3474 2.19549L58.5745 0.446516C58.6048 0.189091 58.5518 0.0414505 58.4155 0.00359398C58.2792 -0.0342626 58.0824 0.226948 57.8249 0.787224C56.7043 3.74004 56.0266 5.48522 55.7919 6.02278C55.5571 6.56035 55.4019 7.01084 55.3262 7.37426C55.1899 7.73769 55.0271 8.75981 54.8378 10.4406C54.6485 12.1215 54.5122 13.5222 54.4289 14.6427C54.3456 15.7633 54.2586 16.4523 54.1677 16.7097C53.88 18.4814 53.3348 20.0032 52.5322 21.2752C52.2444 21.7446 51.9151 22.2481 51.544 22.7857C51.173 23.3232 50.8285 23.804 50.5105 24.228C50.1773 24.6974 50.1243 25.0306 50.3515 25.2274C50.5332 25.3637 50.8815 25.1668 51.3964 24.6368L54.0541 21.6386C54.675 20.8966 55.3716 20.2531 56.144 19.7079C57.2343 18.9508 58.2111 18.5722 59.0743 18.5722C59.574 18.5722 60.0965 18.6858 60.6417 18.9129C61.1414 19.1704 61.3913 19.4581 61.3913 19.7761C61.3913 20.3363 60.8537 21.0405 59.7785 21.8885C58.4155 22.9484 56.5756 23.9327 54.2586 24.8413C53.4256 25.2047 52.3126 25.5681 50.9194 25.9315C49.4958 26.3404 47.9663 26.6811 46.3308 26.9537C45.9825 27.4534 45.8348 27.9455 45.8878 28.4301C45.9408 28.9146 46.0885 29.3992 46.3308 29.8838C46.8457 30.1866 47.4439 30.4138 48.1253 30.5652C48.8825 30.7469 49.4655 30.8377 49.8744 30.8377ZM6.85096 39.3555C8.33505 39.5826 10.4703 39.6886 13.2568 39.6735H14.12C15.1346 39.6583 16.2287 39.6129 17.4024 39.5372C18.576 39.4615 19.7345 39.3706 20.8779 39.2646C22.0212 39.1586 23.1078 39.045 24.1376 38.9239C25.1674 38.8028 26.0533 38.6816 26.7953 38.5605C28.1431 38.3636 29.5704 38.1024 31.0772 37.7769C32.584 37.4513 34.0605 37.0046 35.5068 36.4367C36.953 35.8689 38.3084 35.1496 39.5729 34.2789C40.8374 33.4082 41.8937 32.3293 42.7417 31.0422C42.9234 30.7848 43.0749 30.5803 43.196 30.4289C43.3172 30.2775 43.4194 30.1563 43.5027 30.0655C43.586 29.9746 43.6466 29.9141 43.6844 29.8838C43.7223 29.8535 43.7563 29.8308 43.7866 29.8156C43.8775 29.7551 43.9873 29.7058 44.116 29.668C44.2447 29.6301 44.4037 29.6112 44.593 29.6112C44.7823 29.6112 45.0171 29.6339 45.2972 29.6793C45.5774 29.7248 45.9219 29.7929 46.3308 29.8838C46.6185 29.4143 46.7548 28.9298 46.7397 28.4301C46.7245 27.9304 46.5882 27.4382 46.3308 26.9537C46.2248 26.9537 46.0733 26.9575 45.8765 26.965C45.6796 26.9726 45.4903 26.9688 45.3086 26.9537L45.6493 26.1133C45.6796 25.977 45.6607 25.8672 45.5925 25.7839C45.5244 25.7006 45.4335 25.6514 45.3199 25.6363C45.2064 25.6211 45.0814 25.6476 44.9451 25.7158C44.8088 25.7839 44.6877 25.9088 44.5817 26.0905C44.0062 26.878 42.9802 27.6162 41.5037 28.3051C40.0272 28.9941 38.0926 29.6491 35.6999 30.2699C34.3975 30.6182 32.9853 30.9286 31.4634 31.2012C29.9414 31.4737 28.3627 31.6971 26.7272 31.8712C25.0916 32.0454 23.422 32.1703 21.7184 32.246C20.0147 32.3217 18.3299 32.3444 16.6641 32.3142C11.0912 32.2536 6.94939 31.6479 4.23866 30.497C3.16345 30.0125 2.5047 29.2781 2.2624 28.2938C2.15639 27.8849 2.0731 27.4912 2.01252 27.1127C1.9368 26.7644 1.8573 26.5183 1.77401 26.3745C1.69072 26.2306 1.60364 26.17 1.51278 26.1928C1.42192 26.2155 1.33863 26.3025 1.26291 26.454C1.18719 26.6054 1.12661 26.8022 1.08118 27.0445C1.02061 27.3928 0.952459 27.7865 0.87674 28.2256C0.695015 29.2705 0.551149 30.3153 0.445142 31.3602C0.339136 32.405 0.286133 33.2076 0.286133 33.7678C0.286133 35.2064 0.748018 36.3421 1.67179 37.1749C2.70157 38.2501 4.42796 38.9769 6.85096 39.3555ZM19.6399 55.9139C19.7156 56.0048 19.8368 56.0237 20.0033 55.9707C20.1699 55.9177 20.3441 55.8306 20.5258 55.7095C20.7075 55.5884 20.8817 55.4596 21.0483 55.3234C21.2148 55.1871 21.336 55.0735 21.4117 54.9827C21.6691 54.7252 21.9152 54.4564 22.15 54.1763C22.3847 53.8962 22.6081 53.582 22.8201 53.2337C23.1684 52.7188 23.4069 52.2267 23.5356 51.7573C23.6643 51.2879 23.6681 50.8336 23.547 50.3944C23.4561 50.0159 23.3085 49.6714 23.104 49.361C22.8996 49.0505 22.6611 48.7628 22.3885 48.4978C22.1159 48.2328 21.8206 47.9868 21.5026 47.7596C21.1845 47.5325 20.8665 47.3281 20.5485 47.1464C20.4274 47.0706 20.3138 47.029 20.2078 47.0214C20.1018 47.0139 19.9958 47.0858 19.8898 47.2372L16.2552 52.7794C16.1795 52.9157 16.1379 53.0179 16.1303 53.086C16.1227 53.1542 16.172 53.2261 16.278 53.3018C16.914 53.6955 17.497 54.1195 18.0271 54.5738C18.5571 55.0281 19.0947 55.4748 19.6399 55.9139Z" fill="#475569"/>
</svg>
