<svg width="133" height="28" viewBox="0 0 133 28" fill="none" xmlns="http://www.w3.org/2000/svg">
<g clip-path="url(#clip0_180_5127)">
<path fill-rule="evenodd" clip-rule="evenodd" d="M131.857 4.60423C131.857 5.35263 131.635 6.0842 131.219 6.70642C130.804 7.32864 130.213 7.81357 129.521 8.09988C128.83 8.38619 128.069 8.46102 127.335 8.31492C126.601 8.16882 125.927 7.80833 125.397 7.27906C124.868 6.74979 124.508 6.0755 124.362 5.34145C124.216 4.60741 124.291 3.84658 124.578 3.15518C124.864 2.46378 125.349 1.87287 125.972 1.45716C126.594 1.04145 127.326 0.819624 128.074 0.819724C128.571 0.819724 129.063 0.917621 129.522 1.10782C129.981 1.29802 130.398 1.5768 130.75 1.92824C131.101 2.27968 131.38 2.69689 131.57 3.15604C131.76 3.61519 131.858 4.10729 131.857 4.60423ZM128.074 0.426758C127.248 0.426758 126.44 0.671762 125.753 1.13079C125.066 1.58981 124.531 2.24225 124.214 3.00558C123.898 3.76891 123.816 4.60886 123.977 5.41921C124.138 6.22956 124.536 6.97392 125.12 7.55815C125.704 8.14238 126.449 8.54025 127.259 8.70143C128.069 8.86262 128.909 8.7799 129.673 8.46371C130.436 8.14753 131.088 7.61209 131.547 6.92511C132.006 6.23813 132.251 5.43046 132.251 4.60423C132.251 4.05551 132.143 3.51216 131.933 3.00523C131.723 2.4983 131.415 2.03771 131.027 1.64977C130.639 1.26184 130.179 0.954161 129.672 0.744312C129.165 0.534464 128.621 0.426559 128.072 0.426758H128.074Z" fill="#475569"/>
<path d="M125.904 7.41617L125.878 1.85296L128.346 1.84132C128.729 1.82303 129.112 1.87199 129.478 1.98597C129.738 2.08651 129.957 2.27226 130.098 2.51296C130.254 2.76498 130.336 3.05542 130.335 3.35148C130.345 3.72208 130.209 4.08184 129.955 4.35185C129.632 4.65555 129.216 4.83973 128.774 4.87378C128.934 4.9436 129.084 5.0359 129.218 5.14789C129.452 5.36657 129.659 5.61378 129.832 5.88375L130.802 7.39139L129.882 7.39543L129.141 6.24486C128.924 5.91208 128.746 5.65769 128.606 5.48169C128.501 5.33965 128.374 5.21492 128.231 5.11199C128.127 5.0453 128.013 4.99625 127.894 4.96684C127.758 4.94494 127.621 4.93647 127.484 4.94155L126.63 4.94559L126.643 7.41263L125.904 7.41617ZM126.627 4.30785L128.21 4.30026C128.477 4.31035 128.744 4.27408 128.999 4.19304C129.177 4.1326 129.329 4.01391 129.43 3.85622C129.527 3.70791 129.577 3.53447 129.576 3.35755C129.579 3.23482 129.554 3.11299 129.504 3.00093C129.454 2.88886 129.38 2.78937 129.286 2.70969C129.024 2.51989 128.702 2.43117 128.379 2.45985L126.618 2.46845L126.627 4.30785Z" fill="#475569"/>
<path fill-rule="evenodd" clip-rule="evenodd" d="M19.64 10.5862L16.9747 13.2515C16.2486 12.4103 15.3506 11.7345 14.3412 11.2698C13.3318 10.805 12.2345 10.5621 11.1232 10.5574C10.2151 10.5272 9.31067 10.6871 8.46789 11.0267C7.62512 11.3664 6.86259 11.8783 6.22915 12.5298C5.5862 13.1456 5.07871 13.8888 4.7391 14.7118C4.39949 15.5348 4.23521 16.4195 4.25674 17.3096C4.2357 18.2261 4.40508 19.1369 4.75417 19.9846C5.10325 20.8322 5.62444 21.5982 6.28478 22.234C6.94588 22.9009 7.73687 23.4249 8.60873 23.7735C9.48059 24.1222 10.4148 24.2882 11.3534 24.2611C12.5013 24.2908 13.6348 23.9999 14.6266 23.421C15.5956 22.789 16.3531 21.8811 16.8013 20.8144H11.0661V17.2236H21.0293V18.0637C21.0335 19.8222 20.5736 21.5507 19.6962 23.0746C18.8817 24.5625 17.6808 25.803 16.2202 26.6654C14.6937 27.5263 12.9621 27.9566 11.2102 27.9106C9.28752 27.9551 7.38793 27.4842 5.70873 26.5466C4.08966 25.6575 2.76194 24.3196 1.88529 22.6938C0.940495 21.0354 0.450587 19.1569 0.46516 17.2484C0.460131 15.8605 0.73318 14.4857 1.26819 13.2051C1.80321 11.9245 2.58935 10.764 3.5802 9.7922C4.57106 8.82039 5.74656 8.05691 7.03731 7.54685C8.32807 7.03679 9.70792 6.79047 11.0954 6.82243C12.7559 6.81206 14.4013 7.13736 15.9329 7.77879C17.3497 8.44778 18.6121 9.40377 19.64 10.5862Z" fill="#475569"/>
<path fill-rule="evenodd" clip-rule="evenodd" d="M33.8313 12.5571H37.4802V27.4155H33.8313V25.8522C33.2076 26.479 32.4693 26.9802 31.6566 27.3285C31.1244 27.5647 30.5569 27.7115 29.977 27.7629V24.3744C30.5145 24.3894 31.0489 24.2883 31.5438 24.0782C32.0387 23.868 32.4825 23.5537 32.8451 23.1566C33.6337 22.2764 34.049 21.1239 34.0032 19.943C34.0443 18.7883 33.6281 17.6641 32.8451 16.8145C32.4782 16.423 32.0335 16.1125 31.5396 15.903C31.0457 15.6934 30.5134 15.5894 29.977 15.5976V12.2091C30.5644 12.2885 31.1389 12.4444 31.6859 12.6729C32.4843 13.0434 33.2103 13.5532 33.8298 14.1785L33.8313 12.5571ZM29.9785 27.7629C29.7572 27.788 29.5345 27.7978 29.3119 27.7923C28.38 27.7906 27.4591 27.5908 26.6103 27.2062C25.7615 26.8216 25.0041 26.2609 24.3885 25.5614C23.0068 24.0452 22.2694 22.051 22.3321 20.0007C22.253 17.9317 22.9691 15.911 24.3333 14.3535C24.9374 13.6573 25.685 13.1001 26.5247 12.7201C27.3644 12.3401 28.2764 12.1463 29.1981 12.152C29.46 12.1566 29.7213 12.1759 29.981 12.2096V15.5981H29.9517C29.4162 15.585 28.8844 15.6899 28.394 15.9052C27.9036 16.1206 27.4666 16.4412 27.1139 16.8443C26.3789 17.7279 25.9788 18.8423 25.984 19.9917C25.9892 21.141 26.3993 22.2518 27.1423 23.1287C27.4951 23.5319 27.9323 23.8526 28.4229 24.068C28.9134 24.2833 29.4454 24.3881 29.981 24.3749L29.9785 27.7629Z" fill="#475569"/>
<path d="M43.3048 6.82141H39.626V27.415H43.3048V6.82141Z" fill="#475569"/>
<path fill-rule="evenodd" clip-rule="evenodd" d="M62.1016 21.0734H54.4264V18.1183H58.3945C58.158 17.3043 57.6591 16.5913 56.9754 16.0903C56.2518 15.5661 55.3774 15.2917 54.4841 15.3084H54.4264V12.152C55.4499 12.128 56.4672 12.3162 57.4144 12.7049C58.3615 13.0935 59.2178 13.6742 59.9294 14.4102C61.3774 15.9168 62.1041 17.8862 62.1041 20.3482V21.0734H62.1016ZM54.4264 24.5201H54.4841C55.1427 24.5275 55.7959 24.4003 56.4036 24.1465C57.0114 23.8926 57.561 23.5174 58.0187 23.0438L61.1169 24.5201C60.4353 25.5822 59.4724 26.4345 58.3353 26.9821C57.1438 27.5534 55.8327 27.8308 54.5119 27.7913H54.4249L54.4264 24.5201ZM54.4264 21.0734H50.2828C50.4239 22.0478 50.906 22.9406 51.6433 23.5931C52.435 24.2152 53.4182 24.5429 54.4249 24.5201V27.7933C53.402 27.8251 52.3835 27.6465 51.4324 27.2687C50.4814 26.8909 49.618 26.3219 48.8957 25.5969C48.1735 24.8719 47.6077 24.0063 47.2336 23.0538C46.8594 22.1013 46.6847 21.0822 46.7204 20.0594C46.6895 19.021 46.8656 17.9868 47.2384 17.0171C47.6111 16.0474 48.1731 15.1616 48.8915 14.4112C49.5851 13.6753 50.4259 13.0938 51.3593 12.7047C52.2927 12.3156 53.2976 12.1276 54.3086 12.153H54.4249V15.3079C53.5504 15.2923 52.6939 15.5564 51.9801 16.0618C51.2663 16.5672 50.7326 17.2874 50.4568 18.1173H54.4249L54.4264 21.0734Z" fill="#475569"/>
<mask id="mask0_180_5127" style="mask-type:luminance" maskUnits="userSpaceOnUse" x="64" y="7" width="59" height="21">
<path d="M122.322 9.91816H64.1914V7.82385H122.322V9.91816ZM122.322 10.3162H64.1914V12.6932H122.322V10.3162ZM122.322 13.1013H64.1914V15.5168H122.322V13.1013ZM122.322 15.9108H64.1914V18.2949H122.322V15.9108ZM122.322 18.6959H64.1914V21.0987H122.322V18.6959ZM122.322 21.4988H64.1914V23.8829H122.322V21.4988ZM122.322 24.2839H64.1914V27.152H122.322V24.2839Z" fill="white"/>
</mask>
<g mask="url(#mask0_180_5127)">
<path fill-rule="evenodd" clip-rule="evenodd" d="M68.3876 8.29926H72.1524L76.8447 21.1898L81.5952 8.29976H85.3024L88.7202 26.7788H85.0131L82.8384 15.1061L78.5223 26.7788H75.1338L70.8799 15.1056L68.6501 26.7783H64.9121L68.3876 8.29926Z" fill="#475569"/>
<path fill-rule="evenodd" clip-rule="evenodd" d="M98.1693 18.2337H102.102C101.858 17.4618 101.344 16.8038 100.654 16.3806C99.8959 15.8899 99.008 15.6376 98.1051 15.6564H98.0474V12.7589C98.0621 12.7589 98.0778 12.7589 98.0945 12.7589C100.147 12.705 102.142 13.4415 103.667 14.8163C104.406 15.5184 104.987 16.3697 105.371 17.3136C105.756 18.2576 105.935 19.2725 105.897 20.2911L105.868 20.9283H93.8199C93.8872 21.3872 94.0448 21.8282 94.2835 22.2259C94.5222 22.6235 94.8373 22.97 95.2107 23.2451C96.0208 23.8423 97.0087 24.1486 98.0146 24.1145H98.1071C99.4389 24.1426 100.732 23.6665 101.728 22.7814L104.885 24.1428C104.143 25.1216 103.167 25.8987 102.047 26.403C100.809 26.9173 99.4757 27.1641 98.1354 27.1273H98.0019C95.9439 27.1956 93.9384 26.4694 92.4013 25.0992C91.685 24.4657 91.1146 23.6844 90.7295 22.8092C90.3444 21.934 90.1536 20.9857 90.1704 20.0296C90.1503 19.052 90.3389 18.0813 90.7236 17.1824C91.1083 16.2834 91.6802 15.4768 92.4013 14.8163C93.9036 13.4305 95.8909 12.6915 97.9336 12.7589H98.05V15.6564H98.0019C97.0591 15.6582 96.138 15.9398 95.3553 16.4656C94.7524 16.9295 94.2747 17.5365 93.9655 18.2317H98.1693V18.2337Z" fill="#475569"/>
<path fill-rule="evenodd" clip-rule="evenodd" d="M117.917 7.83548H121.654V26.7782H117.917V25.3298C117.268 25.9143 116.524 26.3845 115.717 26.7206C115.166 26.9206 114.591 27.0472 114.007 27.0973V23.9976C114.545 24.0122 115.081 23.9199 115.583 23.7261C116.085 23.5322 116.544 23.2407 116.933 22.8683C117.322 22.4841 117.626 22.0226 117.825 21.5136C118.025 21.0046 118.115 20.4594 118.091 19.9132C118.112 19.3761 118.02 18.8405 117.821 18.3414C117.621 17.8423 117.319 17.3909 116.933 17.0168C116.137 16.2842 115.088 15.8895 114.007 15.9158V12.7877C114.593 12.8576 115.168 13.0039 115.717 13.2232C116.53 13.5459 117.276 14.0172 117.917 14.613V7.83548Z" fill="#475569"/>
<path fill-rule="evenodd" clip-rule="evenodd" d="M114.007 27.0974C113.776 27.1218 113.544 27.1316 113.312 27.1268C112.373 27.1274 111.444 26.9425 110.577 26.5828C109.711 26.223 108.923 25.6955 108.261 25.0306C107.599 24.3656 107.075 23.5764 106.719 22.7081C106.362 21.8399 106.181 20.9098 106.186 19.9714C106.152 19.0121 106.318 18.0562 106.672 17.1639C107.026 16.2716 107.56 15.4622 108.242 14.7865C108.885 14.1277 109.657 13.6079 110.509 13.2591C111.361 12.9102 112.275 12.7398 113.195 12.7584C113.466 12.7536 113.736 12.7634 114.005 12.7878V15.9163H113.978C113.443 15.8939 112.91 15.9828 112.411 16.1772C111.912 16.3716 111.46 16.6674 111.081 17.0458C110.703 17.4243 110.407 17.8771 110.213 18.3757C110.018 18.8743 109.929 19.4079 109.952 19.9426C109.939 20.476 110.034 21.0066 110.232 21.5023C110.429 21.998 110.725 22.4487 111.101 22.8272C111.477 23.2058 111.926 23.5044 112.42 23.7052C112.914 23.906 113.444 24.0048 113.978 23.9957H114.007L114.007 27.0974Z" fill="#475569"/>
</g>
</g>
<defs>
<clipPath id="clip0_180_5127">
<rect width="132" height="27.8161" fill="white" transform="translate(0.464844 0.0919495)"/>
</clipPath>
</defs>
</svg>
