<svg width="99" height="56" viewBox="0 0 99 56" fill="none" xmlns="http://www.w3.org/2000/svg">
<path d="M72.7779 48.9452L64.6312 55.9998H35.552L27.5294 49.6389C55.105 58.4335 72.7779 48.9452 72.7779 48.9452ZM98.0863 28.4857L97.3391 29.3034L91.067 34.4821L91.0844 34.4728C91.0844 34.4728 77.7681 45.7835 76.9148 46.1692L76.9146 46.1677C50.5929 58.3169 24.6464 47.093 24.6464 47.093L23.0174 46.4113C23.0174 46.4113 9.0683 35.1625 5.98412 32.7697C4.56674 31.6928 3.39788 30.8094 2.66664 30.2578L2.6633 30.2586L0.464844 28.7458H6.75085L7.84085 30.1233C9.46359 31.8445 11.1582 33.3184 12.737 34.5393C13.3149 34.9427 16.4559 37.1188 19.4211 38.832C19.4833 38.8629 19.5157 38.8784 19.5157 38.8784L24.1487 40.9608C47.0109 51.7171 69.9695 43.6084 75.2743 41.4496L75.2728 41.4503C82.951 37.9663 92.9586 28.7458 92.9586 28.7458L98.0863 28.4857ZM90.7018 28.7458C52.5487 60.8919 19.6092 37.7028 11.6732 31.1142L11.6739 31.1152L11.6527 31.0972C11.2198 30.7374 10.8622 30.4278 10.5831 30.1801L10.5667 30.1659L10.5664 30.166L10.5647 30.1642L8.91046 28.7458H15.198C15.198 28.7458 16.9083 30.0967 17.3549 30.423C53.0063 55.3604 84.4353 28.7458 84.4353 28.7458H90.7018ZM81.5523 28.7458C51.9336 50.0969 24.5239 33.0824 20.1225 30.0691L20.1239 30.0703L18.1287 28.7458H24.1457C24.1457 28.7458 26.3397 30.29 27.4337 30.8387L27.4292 30.8387C53.3726 44.2855 75.7864 28.7458 75.7864 28.7458H81.5523ZM34.7181 28.7458C34.7181 28.7458 36.924 29.7833 37.6369 30.0165L37.6338 30.0178C53.2387 35.2667 65.2574 28.7458 65.2574 28.7458H71.9051C51.9475 39.4865 35.1151 32.2482 30.682 29.941L30.6798 29.9417C30.5331 29.8697 30.3967 29.7982 30.2703 29.7281L28.3872 28.7458H34.7181ZM39.6351 28.6038C39.6463 28.608 39.6576 28.6121 39.6691 28.6158L60.4002 28.6157L60.2148 28.7465L60.2447 28.7458C60.2447 28.7458 58.8386 29.8647 54.939 30.326C53.6813 30.5358 50.0775 31.0744 48.1118 30.7194C46.2644 30.6223 44.5097 30.2922 43.1834 29.9747C42.7985 29.8922 41.9224 29.6896 41.0696 29.3875C40.8997 29.3326 40.8083 29.3004 40.8083 29.3004L40.7385 29.2644C40.2732 29.0825 39.8357 28.8707 39.5142 28.6326L39.4961 28.6232L39.5007 28.6226C39.4977 28.6203 39.4946 28.618 39.4916 28.6157L39.5497 28.6156L39.6351 28.6038Z" fill="#475569"/>
<path d="M96.0926 0L98.0425 2.25992H76.0052L69.1432 8.09952L45.9262 26.6943H32.5492L0.464844 26.7293L3.08327 24.5303H25.1486L54.3413 0H96.0926Z" fill="#475569"/>
</svg>
