<svg width="98" height="56" viewBox="0 0 98 56" fill="none" xmlns="http://www.w3.org/2000/svg">
<path d="M65.91 8.17537L65.9018 8.1819L65.9088 8.18011L69.3398 13.6224L69.3411 13.6209L71.8535 17.0676L71.8692 17.0426L97.5358 55.5851H95.4362L70.7022 18.909L68.6452 16.1097C67.4383 14.4684 65.9403 14.6283 65.9105 14.6316C62.0452 14.581 61.0708 16.5269 60.8633 17.9004L60.8633 36.3144L76.0424 36.3144L82.017 45.5864H61.3687C61.3687 45.5864 61.7925 55.0166 57.0857 55.8508C56.744 55.9435 56.372 55.9958 55.9689 55.9907C55.67 56.0175 55.3513 55.9851 55.0237 55.909C53.0415 55.489 51.3845 54.1051 50.3996 53.0981L50.4013 53.1007C50.2665 52.9792 50.0771 52.7724 49.8391 52.4894L49.8376 52.4871C49.6567 52.2775 49.5319 52.1188 49.4701 52.038L49.4713 52.0399C44.3332 45.6217 24.0004 15.3385 23.3285 14.3375L14.0004 0.94266H16.5664L39.8505 34.3215L39.8505 34.3213L39.8509 34.3222L41.53 36.7292C42.0407 37.3437 42.6424 37.9708 43.2982 38.4693C43.8294 38.8235 44.4954 39.1899 45.2229 39.4104C45.2237 39.4104 45.2244 39.4105 45.225 39.4106C46.2401 39.7184 47.3752 39.7417 48.4311 39.0517L48.4301 39.0508C48.4313 39.0503 48.4326 39.0499 48.4338 39.0494C48.8802 38.7576 49.3125 38.3378 49.7155 37.7579C50.2692 36.6524 50.4521 35.1158 50.5049 33.9612L50.5049 7.70905C50.5049 7.70905 49.8996 3.18782 52.4934 1.2837C53.2235 0.628063 54.0578 0.300176 54.9103 0.183986C56.8517 -0.350024 61.1719 -0.260291 65.91 8.17537ZM5.87214 0.133567C11.2194 -0.854014 15.7134 6.21843 17.8316 10.3077L20.8177 15.1939L47.1341 55.5851H43.8355L20.0221 18.6537L20.0224 18.6546L20.0218 18.6534L19.1335 17.2757L19.1335 17.2711C19.1289 17.2621 19.1242 17.2532 19.1196 17.2442C18.2687 16.2029 16.8066 15.0131 14.693 15.3091C13.8335 15.4432 11.1591 16.0877 10.5273 18.974C10.5167 19.0414 10.5073 19.1073 10.4993 19.172L10.4994 36.3144L24.8489 36.3144L31.8484 45.5864L10.4994 45.5863L10.4995 55.5851H0.077059L0.0770219 10.0491L0.0711412 10.043C0.0456366 9.38693 0.0486788 8.77426 0.0766162 8.20216L0.077059 8.17537L0.0779168 8.17591C0.475563 0.26617 5.64195 0.135113 5.86325 0.133129L5.87057 0.133104L5.87214 0.133567Z" fill="#475569"/>
</svg>
