<svg width="101" height="22" viewBox="0 0 101 22" fill="none" xmlns="http://www.w3.org/2000/svg">
<path d="M88.5488 2.63189C88.5488 1.54512 89.6356 0.675708 90.7224 0.675708C91.8092 0.675708 92.5699 1.54512 92.4612 2.63189C92.4612 3.71866 91.3744 4.58808 90.2877 4.58808C89.2009 4.58808 88.4402 3.71866 88.5488 2.63189ZM88.8749 2.63189C88.8749 3.50131 89.4183 4.26204 90.2877 4.26204C91.1571 4.26204 92.0265 3.50131 92.1352 2.63189C92.1352 1.54512 91.5918 1.00174 90.7224 1.00174C89.6356 1.00174 88.9836 1.6538 88.8749 2.63189ZM91.2658 3.71866H90.8311L90.2877 2.63189V3.71866H89.853L90.0703 1.54512H91.1571C91.3744 1.54512 91.8092 1.54512 91.7005 2.08851C91.7005 2.52321 91.4831 2.74057 91.1571 2.74057L91.5918 3.82734L91.2658 3.71866ZM90.179 1.87115L89.9616 2.41454H90.2877C90.7224 2.41454 91.1571 2.41454 91.1571 2.19718C91.1571 1.97983 90.9397 1.97983 90.7224 1.97983H90.2877L90.179 1.87115ZM27.2551 3.82734C27.2551 2.95792 26.7118 2.19718 25.625 2.19718C24.5382 2.19718 23.6688 3.28395 23.4514 4.04469V4.26204C23.4514 5.02278 24.1035 5.78352 25.1903 5.78352C26.4944 5.78352 27.3638 4.9141 27.3638 4.04469V3.82734H27.2551ZM26.1684 8.17441H23.5601V8.60912L21.7126 21.433H24.3209L26.1684 8.39176V8.17441ZM48.9905 10.7827V10.4566L49.3165 8.28309V8.06573H48.5558C47.0343 8.06573 45.7302 8.60912 44.6434 9.69589L44.8608 8.60912V8.39176H41.9265L40.2963 21.433H43.5567L44.3174 15.4558C44.7521 11.9781 46.2736 10.674 48.6645 10.674H49.0992L48.9905 10.7827ZM60.6189 14.9124C60.2929 17.5206 58.4454 19.2594 55.8371 19.2594C53.6636 19.2594 52.1421 17.8466 52.1421 15.6731V15.1297C52.3595 12.4128 54.3157 10.7827 56.8152 10.7827C58.9888 10.7827 60.6189 12.0868 60.6189 14.2603V14.9124ZM57.3586 8.06573C53.4462 8.06573 49.7512 10.8913 49.3165 14.9124V15.9991C49.3165 19.4768 52.0334 21.8677 55.5111 21.8677C59.3148 21.8677 63.1185 19.0421 63.4445 15.0211V13.9343C63.4445 10.3479 60.7276 7.95706 57.2499 7.95706L57.3586 8.06573ZM70.3998 0.132324H67.7916H67.5742L64.966 21.6503H67.7916L70.3998 0.349678V0.132324ZM75.5076 8.28309H72.8994V8.60912L71.1606 21.433H73.9862L75.6163 8.39176L75.5076 8.28309ZM75.0729 2.08851C73.9862 2.08851 72.8994 3.17528 72.8994 3.93601V4.26204C72.8994 5.02278 73.5514 5.78352 74.6382 5.78352C75.725 5.78352 76.5944 4.9141 76.8118 4.04469V3.82734C76.7031 2.95792 76.1597 2.08851 75.0729 2.08851ZM15.7354 8.17441C14.1052 8.17441 12.4751 8.82647 11.3883 10.3479C10.7363 8.93515 9.43214 8.17441 7.80199 8.17441C6.60654 8.06573 5.51978 8.60912 4.43301 9.69589L4.65036 8.60912V8.39176H1.82477H1.60741L0.0859375 21.6503H2.80286L3.88963 15.1297C3.88963 12.9562 4.65036 10.7827 7.14993 10.7827C8.78008 10.7827 9.10611 11.8694 9.10611 12.9562V14.369L8.01934 21.759H10.7363L11.823 15.0211C11.823 13.0649 12.5838 10.674 15.0833 10.674C16.8222 10.674 17.0395 11.7607 17.2569 12.8475L17.0395 14.369L15.9527 21.759H18.561L19.6478 14.1516V12.6302C19.6478 11.5434 19.4304 10.4566 18.7783 9.69589C18.1263 8.93515 17.2569 8.39176 15.7354 8.39176V8.17441ZM85.9406 10.7827L86.158 8.60912V8.39176H82.0282L82.463 4.91411C82.6803 3.39263 83.7671 2.74057 85.3972 2.74057H87.0274C87.2447 2.74057 87.2447 2.74057 87.2447 2.52321L87.5708 0.349678V0.132324H85.3972C82.3543 0.132324 79.9634 1.97983 79.6373 5.02278L77.4638 21.3243V21.5417H80.1807V21.3243L81.7022 10.7827H85.9406ZM93.9827 8.06573C90.0703 8.06573 86.3753 10.8913 85.8319 14.9124L85.6146 15.9991C85.6146 19.4768 88.5488 21.8677 92.1352 21.8677C95.3955 21.8677 98.4384 20.0202 99.7426 17.0859V16.8686H96.8083C95.9389 18.39 94.4174 19.2594 92.4612 19.2594C90.2877 19.2594 88.7662 17.8466 88.7662 15.6731V15.1297C89.0922 12.4128 91.1571 10.7827 93.7653 10.7827C94.8521 10.7827 95.9389 11 96.5909 11.8694L92.4612 14.043L92.0265 16.6512H92.2439L100.286 12.9562C99.7426 9.91324 97.0256 8.06573 93.9827 8.06573ZM39.4269 8.93515C38.3402 8.39176 37.2534 8.06573 35.8406 8.06573C31.7109 8.06573 28.2332 11.1087 27.5812 14.9124V15.7818C27.5812 19.3681 30.2981 21.8677 34.1018 21.8677C35.1885 21.8677 36.2753 21.5417 37.3621 21.107H37.5794V18.2814V18.064C36.4927 18.8247 35.4059 19.1508 34.3191 19.1508C33.2324 19.1508 32.1456 18.8247 31.4935 18.064C30.8415 17.3033 30.4068 16.6512 30.4068 15.5644V15.1297L31.0588 13.1735C31.3849 12.7388 31.7109 12.0868 32.1456 11.8694C33.015 11.1087 34.3191 10.7827 35.4059 10.7827C36.4927 10.7827 37.5794 11 38.3402 11.8694C38.5575 11.8694 38.5575 11.8694 38.5575 11.6521L39.3183 9.1525V8.93515H39.4269Z" fill="#475569"/>
</svg>
